<svg width="193" height="144" viewBox="0 0 193 144" fill="none" xmlns="http://www.w3.org/2000/svg">
<circle cx="96.5" cy="55" r="55" fill="#003049"/>
<path d="M106.873 45.796C106.873 45.796 90.0956 55.9241 84.0667 59.1122C78.0377 62.3004 73.6167 64.5447 68.2263 64.1145C62.836 63.686 61.9616 66.1005 62.6395 67.4228C63.0374 68.1998 64.4275 70.0306 64.7747 72.5768C65.1218 75.123 66.4661 77.6092 69.0712 77.8209C71.6764 78.031 73.0207 75.9167 73.864 74.276C75.5489 70.9961 80.3727 68.2398 81.7235 67.3861C83.0744 66.5307 90.6147 62.122 94.3971 59.9526C98.1795 57.7833 111.2 50.6366 112.525 49.8829C113.848 49.1276 116.763 47.8336 122.174 49.0742C127.586 50.3148 130.191 46.9816 130.8 43.7667C131.409 40.5519 130.016 38.671 127.267 39.1629C124.517 39.6548 124.614 37.2287 124.429 36.1065C124.244 34.9843 123.396 31.9112 120.208 33.3969C117.021 34.8826 117.062 36.7068 114.796 39.1429C112.53 41.579 110.981 43.3299 106.873 45.796Z" stroke="#F5F5F5" stroke-width="1.5" stroke-miterlimit="10" stroke-linecap="round" stroke-linejoin="round"/>
<path d="M78.8655 66.0596L100.509 53.367" stroke="#F5F5F5" stroke-width="1.5" stroke-miterlimit="10" stroke-linecap="round" stroke-linejoin="round"/>
<path d="M69.945 124.1V136H75.011C76.898 136 79.533 135.405 79.533 132.702C79.533 130.849 78.258 130.033 77.187 129.727C78.19 129.404 79.057 128.554 79.057 127.109C79.057 125.086 77.459 124.1 74.977 124.1H69.945ZM77.561 132.498C77.561 134.147 76.15 134.3 74.824 134.3H71.883V130.679H75.096C76.167 130.679 77.561 130.917 77.561 132.498ZM77.085 127.415C77.085 128.571 76.167 129.047 75.045 129.047L71.883 129.03V125.783H74.773C76.201 125.783 77.085 126.225 77.085 127.415ZM80.8663 131.92C80.8663 134.742 83.0083 136.221 85.2863 136.221C87.5813 136.221 89.7063 134.742 89.7063 131.92C89.7063 129.098 87.5813 127.619 85.2863 127.619C83.0083 127.619 80.8663 129.098 80.8663 131.92ZM87.8533 131.92C87.8533 133.518 86.7993 134.555 85.2863 134.555C83.7563 134.555 82.7023 133.518 82.7023 131.92C82.7023 130.322 83.7563 129.285 85.2863 129.285C86.7993 129.285 87.8533 130.322 87.8533 131.92ZM91.9488 125.375V127.84H90.4868V129.438H91.9488V133.518C91.9488 135.422 93.1728 136.204 94.7538 136.204C95.5528 136.204 96.3348 136.068 96.9468 135.847V134.283C96.4368 134.487 95.8928 134.606 95.2978 134.606C94.2438 134.606 93.7508 134.249 93.7508 133.178V129.438H96.7088V127.84H93.7508V124.933L91.9488 125.375ZM99.0211 125.375V127.84H97.5591V129.438H99.0211V133.518C99.0211 135.422 100.245 136.204 101.826 136.204C102.625 136.204 103.407 136.068 104.019 135.847V134.283C103.509 134.487 102.965 134.606 102.37 134.606C101.316 134.606 100.823 134.249 100.823 133.178V129.438H103.781V127.84H100.823V124.933L99.0211 125.375ZM104.988 131.92C104.988 134.793 107.113 136.221 109.612 136.221C110.751 136.221 111.788 136.017 112.536 135.66V134.096C111.839 134.436 110.938 134.674 109.952 134.674C108.456 134.674 107.028 134.062 106.824 132.6H112.961C113.488 130.237 112.366 127.619 109.119 127.619C107.232 127.619 104.988 128.962 104.988 131.92ZM111.329 131.24H106.807C106.875 129.863 107.98 129.132 109.204 129.132C110.989 129.132 111.431 130.526 111.329 131.24ZM116.427 128.962V127.84H114.812V136H116.631V130.594C117.09 129.931 117.872 129.234 118.909 129.234C119.997 129.234 120.813 129.863 120.813 131.189V136H122.632V130.951C122.632 129.013 121.323 127.619 119.266 127.619C118.025 127.619 117.022 128.248 116.427 128.962Z" fill="#003049"/>
</svg>
