<svg width="194" height="144" viewBox="0 0 194 144" fill="none" xmlns="http://www.w3.org/2000/svg">
<circle cx="97" cy="55" r="55" fill="#003049"/>
<path d="M120.413 30.0877C119.346 30.9313 118.553 31.5745 118.122 31.9523C114.203 35.3871 110.285 38.8219 111.852 44.1283C113.418 49.4347 113.808 52.8649 108.877 53.3342C103.946 53.8036 94.4423 53.4304 88.2402 45.9906C82.038 38.5508 83.8018 30.9174 92.31 28.7562C99.808 27.0734 106.847 23.7703 112.933 19.0786" stroke="white" stroke-width="1.66" stroke-miterlimit="10" stroke-linecap="round" stroke-linejoin="round"/>
<path d="M94.3868 90.9346C93.0761 82.2849 93.5396 70.6906 100.428 69.1841C107.316 67.6776 113.429 68.5526 112.206 62.092C111.264 57.1147 106.793 61.917 98.0684 59.648C91.5429 57.9514 88.195 54.3648 83.9305 53.1874C79.5836 51.988 75.9008 53.7112 77.8384 61.866C78.857 66.1537 80.4122 74.9853 81.1017 90.9346" stroke="white" stroke-width="1.66" stroke-miterlimit="10" stroke-linecap="round" stroke-linejoin="round"/>
<path d="M99.3335 90.9186C99.2397 89.6813 99.2153 88.4398 99.2605 87.1998C99.432 82.6061 100.06 80.9907 98.9314 78.9824C97.5049 76.441 97.1317 74.9774 101.496 73.3678C105.255 71.9772 106.902 72.2506 107.935 73.902C108.967 75.5534 106.941 78.1712 105.497 79.8179C104.054 81.4647 102.796 83.3269 102.802 89.3135C102.799 89.8502 102.834 90.3865 102.904 90.9186" stroke="white" stroke-width="1.66" stroke-miterlimit="10" stroke-linecap="round" stroke-linejoin="round"/>
<path d="M109.822 56.4802C102.262 57.755 95.7897 56.6205 89.7741 52.3084C86.0087 49.4228 83.2072 45.4629 81.7398 40.9517C81.7398 40.9517 78.0941 45.5187 78.3015 50.5099C78.3015 50.5099 82.551 45.7991 88.2525 51.0754" stroke="white" stroke-width="1.66" stroke-miterlimit="10" stroke-linecap="round" stroke-linejoin="round"/>
<path d="M85.3101 48.6001L78.7695 49.4113L79.5402 44.7666L82.1916 41.6887L85.3101 48.6001Z" fill="white"/>
<path d="M52.214 130.05C52.214 134.487 55.41 136.221 58.708 136.221C60.017 136.221 61.36 135.932 62.499 135.422V129.608H60.612V134.113C60.136 134.334 59.49 134.453 58.827 134.453C56.668 134.453 54.203 133.45 54.203 130.05C54.203 126.939 56.549 125.664 58.878 125.664C60.102 125.664 61.309 125.97 62.21 126.548V124.661C61.139 124.151 59.881 123.879 58.606 123.879C55.41 123.879 52.214 125.851 52.214 130.05ZM64.0987 131.92C64.0987 134.793 66.2237 136.221 68.7227 136.221C69.8617 136.221 70.8987 136.017 71.6467 135.66V134.096C70.9497 134.436 70.0487 134.674 69.0627 134.674C67.5667 134.674 66.1387 134.062 65.9347 132.6H72.0717C72.5987 130.237 71.4767 127.619 68.2297 127.619C66.3427 127.619 64.0987 128.962 64.0987 131.92ZM70.4397 131.24H65.9177C65.9857 129.863 67.0907 129.132 68.3147 129.132C70.0997 129.132 70.5417 130.526 70.4397 131.24ZM84.1104 127.84L82.2914 134.011L80.2854 127.84H78.5854L76.5964 134.011L74.7604 127.84H72.8394L75.5594 136H77.4974L79.4354 130.152L81.3734 136H83.3284L86.0314 127.84H84.1104ZM89.0509 129.183V127.84H87.4359V136H89.2549V131.053C89.7479 129.897 91.0229 129.251 92.4849 129.455V127.67C91.0059 127.534 89.6799 128.18 89.0509 129.183ZM95.7137 136V127.84H93.8947V136H95.7137ZM95.9177 125.188C95.9177 124.474 95.4077 124.117 94.8127 124.117C94.2177 124.117 93.6907 124.474 93.6907 125.188C93.6907 125.936 94.2177 126.276 94.8127 126.276C95.4077 126.276 95.9177 125.936 95.9177 125.188ZM97.5177 131.988C97.5177 134.895 99.7447 136.221 101.921 136.221C102.958 136.221 103.842 136.034 104.624 135.66V133.977C103.978 134.351 103.111 134.606 102.244 134.606C100.782 134.606 99.3707 133.773 99.3707 131.92C99.3707 129.999 100.833 129.234 102.278 129.234C103.111 129.234 103.944 129.489 104.539 129.914V128.248C103.825 127.823 102.941 127.619 102.023 127.619C99.8467 127.619 97.5177 128.945 97.5177 131.988ZM106.395 124.1V136H108.214V130.594C108.673 129.931 109.455 129.234 110.492 129.234C111.58 129.234 112.396 129.863 112.396 131.189V136H114.215V130.951C114.215 129.013 112.906 127.619 110.849 127.619C109.744 127.619 108.809 128.129 108.214 128.741V124.1H106.395ZM116.918 125.375V127.84H115.456V129.438H116.918V133.518C116.918 135.422 118.142 136.204 119.723 136.204C120.522 136.204 121.304 136.068 121.916 135.847V134.283C121.406 134.487 120.862 134.606 120.267 134.606C119.213 134.606 118.72 134.249 118.72 133.178V129.438H121.678V127.84H118.72V124.933L116.918 125.375ZM122.885 131.92C122.885 134.793 125.01 136.221 127.509 136.221C128.648 136.221 129.685 136.017 130.433 135.66V134.096C129.736 134.436 128.835 134.674 127.849 134.674C126.353 134.674 124.925 134.062 124.721 132.6H130.858C131.385 130.237 130.263 127.619 127.016 127.619C125.129 127.619 122.885 128.962 122.885 131.92ZM129.226 131.24H124.704C124.772 129.863 125.877 129.132 127.101 129.132C128.886 129.132 129.328 130.526 129.226 131.24ZM134.323 128.962V127.84H132.708V136H134.527V130.594C134.986 129.931 135.768 129.234 136.805 129.234C137.893 129.234 138.709 129.863 138.709 131.189V136H140.528V130.951C140.528 129.013 139.219 127.619 137.162 127.619C135.921 127.619 134.918 128.248 134.323 128.962Z" fill="#003049"/>
</svg>
