<svg width="193" height="144" viewBox="0 0 193 144" fill="none" xmlns="http://www.w3.org/2000/svg">
<circle cx="96.5" cy="55" r="55" fill="#003049"/>
<path d="M96.4608 79.3749C95.8351 79.3756 95.2267 79.1694 94.7304 78.7884C88.3497 73.8878 68.973 59.544 68.973 46.4864C68.9473 42.4359 70.4585 38.5263 73.2018 35.546C74.4947 34.1269 76.0677 32.9912 77.8216 32.2106C79.5755 31.4301 81.4722 31.0216 83.392 31.0111C86.5279 30.879 89.5985 31.9332 91.992 33.9637C93.8301 35.652 95.3408 37.665 96.4484 39.9015V39.9015C97.5566 37.666 99.0682 35.6545 100.907 33.9682C103.3 31.938 106.371 30.8842 109.506 31.0167C111.426 31.0276 113.324 31.4363 115.078 32.2168C116.833 32.9973 118.407 34.1327 119.701 35.5516C122.442 38.5323 123.951 42.4414 123.925 46.4909C123.926 59.5799 104.866 73.7679 98.1698 78.8041C97.677 79.1745 97.0772 79.3748 96.4608 79.3749V79.3749Z" stroke="white" stroke-width="2.2" stroke-miterlimit="10" stroke-linecap="round" stroke-linejoin="round"/>
<path d="M67.5 55.759H86.4068L90.898 44.4553L96.8415 66.3361L102.785 49.9636L104.669 55.759H125.5" stroke="white" stroke-width="2.2" stroke-miterlimit="10" stroke-linecap="round" stroke-linejoin="round"/>
<path d="M88.156 124.1V129.149H81.883V124.1H79.945V136H81.883V130.934H88.156V136H90.094V124.1H88.156ZM99.4914 134.113V131.189C99.4914 128.724 98.0294 127.619 95.7174 127.619C94.4084 127.619 93.2354 127.942 92.5894 128.163V129.829C93.3204 129.506 94.3234 129.2 95.5304 129.2C96.9244 129.2 97.6724 129.914 97.6724 130.934V131.223C97.0264 131.087 96.2444 130.985 95.5474 130.985C93.8474 130.985 91.9094 131.631 91.9094 133.722C91.9094 135.405 93.2864 136.221 94.7654 136.221C96.0404 136.221 97.0434 135.813 97.8424 135.167C98.1314 135.83 98.7264 136.119 99.4744 136.119C99.8824 136.119 100.29 136.051 100.63 135.915V134.606C100.46 134.657 100.273 134.708 100.086 134.708C99.7634 134.708 99.4914 134.572 99.4914 134.113ZM95.9044 132.26C96.4824 132.26 97.1794 132.362 97.6724 132.464V133.841C97.0264 134.487 96.1764 134.81 95.3094 134.81C94.4934 134.81 93.7794 134.402 93.7794 133.603C93.7794 132.583 94.8674 132.26 95.9044 132.26ZM103.5 129.183V127.84H101.885V136H103.704V131.053C104.197 129.897 105.472 129.251 106.934 129.455V127.67C105.455 127.534 104.129 128.18 103.5 129.183ZM108.905 125.375V127.84H107.443V129.438H108.905V133.518C108.905 135.422 110.129 136.204 111.71 136.204C112.509 136.204 113.291 136.068 113.903 135.847V134.283C113.393 134.487 112.849 134.606 112.254 134.606C111.2 134.606 110.707 134.249 110.707 133.178V129.438H113.665V127.84H110.707V124.933L108.905 125.375Z" fill="#003049"/>
</svg>
