<svg xmlns="http://www.w3.org/2000/svg" width="21" height="18" viewBox="0 0 21 18" fill="none">
<path d="M13.3656 0.997615C12.2557 1.27838 11.231 1.8856 10.4881 2.76597C9.72251 1.88776 8.72751 1.27904 7.61488 0.997615L7.61489 0.997606L7.61325 0.997211C6.24478 0.667379 4.81178 0.898496 3.60761 1.62309C0.973365 3.20285 0.0645322 6.68813 1.59137 9.38495C2.6526 11.3046 4.79539 13.4025 7.96729 15.5853C8.69902 16.1005 9.46178 16.5827 10.2542 17.0641L10.254 17.0645L10.2646 17.0698C10.2679 17.0715 10.2713 17.0732 10.275 17.0751C10.3305 17.1033 10.4223 17.15 10.522 17.15C10.6224 17.15 10.7146 17.1029 10.7706 17.0743C10.7738 17.0727 10.7768 17.0711 10.7798 17.0696L10.78 17.07L10.7897 17.0641C11.4497 16.6634 12.088 16.2403 12.7015 15.8337C12.8266 15.7508 12.9506 15.6686 13.0736 15.5874L13.0736 15.5874L13.0765 15.5854C16.2177 13.4021 18.3596 11.3044 19.452 9.38593L19.4535 9.38321C20.9152 6.68771 20.0076 3.20311 17.373 1.62315C16.1688 0.898539 14.7357 0.667642 13.3673 0.997204L13.3673 0.997195L13.3656 0.997615ZM18.4633 8.88499L18.4625 8.88636C17.4981 10.6182 15.3999 12.6525 12.4301 14.7307L12.4294 14.7312C11.824 15.16 11.1598 15.5893 10.4902 16.0206C9.82068 15.5893 9.15647 15.16 8.55113 14.7312L8.5498 14.7302C5.54965 12.6529 3.48264 10.6186 2.51795 8.88636C1.2903 6.68077 2.02887 3.82458 4.14045 2.55383C4.84806 2.14927 5.61344 1.93383 6.34361 1.93383C7.78185 1.93383 9.19031 2.64599 10.0486 3.94844L10.0486 3.94849C10.1428 4.09134 10.3192 4.17612 10.4904 4.17612C10.6613 4.17612 10.8377 4.09152 10.932 3.94887C12.2503 1.96307 14.8213 1.34642 16.8392 2.55318L16.8397 2.55347C18.9831 3.82417 19.7216 6.68 18.4633 8.88499Z" fill="#003049" stroke="#003049" stroke-width="0.3"/>
</svg>