<svg width="194" height="144" viewBox="0 0 194 144" fill="none" xmlns="http://www.w3.org/2000/svg">
<circle cx="97" cy="55" r="55" fill="#003049"/>
<path d="M109.404 37.6269C109.404 37.6269 100.777 37.6269 100.777 29.0001C100.777 29.0001 100.777 37.6269 92.1504 37.6269C92.1504 37.6269 100.777 37.6269 100.777 46.2537C100.777 46.2537 100.777 37.6269 109.404 37.6269Z" stroke="white" stroke-width="1.6" stroke-miterlimit="10" stroke-linecap="round" stroke-linejoin="round"/>
<path d="M72.4475 54.7104H125.657" stroke="white" stroke-width="1.6" stroke-miterlimit="10" stroke-linecap="round" stroke-linejoin="round"/>
<path d="M125.657 81.9978H72.4475" stroke="white" stroke-width="1.6" stroke-miterlimit="10" stroke-linecap="round" stroke-linejoin="round"/>
<path d="M72.4445 64.6295L79.2752 67.8267C80.8303 68.5551 82.635 68.5195 84.1616 67.7326L87.6996 65.9095C89.2604 65.1041 91.1107 65.087 92.6858 65.8639L96.573 67.7797C98.111 68.538 99.9128 68.5409 101.454 67.7882L105.448 65.8354C107.003 65.0756 108.825 65.087 110.371 65.8667L114.126 67.7583C115.658 68.5295 117.46 68.548 119.008 67.8082L125.653 64.6295" stroke="white" stroke-width="1.6" stroke-miterlimit="10" stroke-linecap="round" stroke-linejoin="round"/>
<path d="M86.5711 50.0148C87.502 49.3942 88.5679 48.8745 89.7861 48.4939C89.1116 48.269 88.4076 47.9875 87.702 47.6347C85.9353 46.7514 84.1443 45.4139 82.7969 43.3926C82.1763 42.4618 81.6566 41.3959 81.2761 40.1779C81.0513 40.8523 80.7696 41.5563 80.4168 42.2619C79.5334 44.0285 78.1959 45.8194 76.1747 47.1669C75.2439 47.7874 74.1781 48.3072 72.9601 48.6878C73.6345 48.9126 74.3385 49.1942 75.044 49.547C76.8105 50.4303 78.6014 51.7678 79.9489 53.789C80.5696 54.7199 81.0894 55.7858 81.4701 57.0039C81.6948 56.3295 81.9764 55.6254 82.3291 54.9199C83.2123 53.1532 84.5498 51.3623 86.5711 50.0148Z" fill="#003049" stroke="white" stroke-width="1.6"/>
<path d="M94.747 48.5908C94.747 48.5908 81.3721 48.5908 81.3735 35.2173C81.3735 35.2173 81.3721 48.5908 68 48.5908C68 48.5908 81.3721 48.5908 81.3735 61.9644C81.3735 61.9644 81.3721 48.5908 94.747 48.5908Z" stroke="white" stroke-width="1.6" stroke-miterlimit="10" stroke-linecap="round" stroke-linejoin="round"/>
<path d="M77.9519 73.4413C78.1089 73.4413 78.2355 73.3147 78.2355 73.1576C78.2355 73.0006 78.1089 72.874 77.9519 72.874C77.7956 72.874 77.6682 73.0013 77.6682 73.1576C77.6682 73.314 77.7956 73.4413 77.9519 73.4413Z" fill="#A6DACB" stroke="white" stroke-width="1.3"/>
<path d="M84.9787 73.4413C85.1357 73.4413 85.2624 73.3147 85.2624 73.1576C85.2624 73.0006 85.1357 72.874 84.9787 72.874C84.8225 72.874 84.695 73.0013 84.695 73.1576C84.695 73.314 84.8225 73.4413 84.9787 73.4413Z" fill="#A6DACB" stroke="white" stroke-width="1.3"/>
<path d="M92.0267 73.4413C92.1837 73.4413 92.3104 73.3147 92.3104 73.1576C92.3104 73.0006 92.1837 72.874 92.0267 72.874C91.8704 72.874 91.743 73.0013 91.743 73.1576C91.743 73.314 91.8704 73.4413 92.0267 73.4413Z" fill="#A6DACB" stroke="white" stroke-width="1.3"/>
<path d="M99.0565 73.4413C99.2135 73.4413 99.3401 73.3147 99.3401 73.1576C99.3401 73.0006 99.2135 72.874 99.0565 72.874C98.9002 72.874 98.7728 73.0013 98.7728 73.1576C98.7728 73.314 98.9002 73.4413 99.0565 73.4413Z" fill="#A6DACB" stroke="white" stroke-width="1.3"/>
<path d="M106.089 73.4413C106.246 73.4413 106.373 73.3147 106.373 73.1576C106.373 73.0006 106.246 72.874 106.089 72.874C105.933 72.874 105.805 73.0013 105.805 73.1576C105.805 73.314 105.933 73.4413 106.089 73.4413Z" fill="#A6DACB" stroke="white" stroke-width="1.3"/>
<path d="M113.128 73.4413C113.286 73.4413 113.412 73.3147 113.412 73.1576C113.412 73.0006 113.286 72.874 113.128 72.874C112.972 72.874 112.845 73.0013 112.845 73.1576C112.845 73.314 112.972 73.4413 113.128 73.4413Z" fill="#A6DACB" stroke="white" stroke-width="1.3"/>
<path d="M120.158 73.4413C120.315 73.4413 120.442 73.3147 120.442 73.1576C120.442 73.0006 120.315 72.874 120.158 72.874C120.002 72.874 119.874 73.0013 119.874 73.1576C119.874 73.314 120.002 73.4413 120.158 73.4413Z" fill="#A6DACB" stroke="white" stroke-width="1.3"/>
<path d="M81.3773 78.09C81.5343 78.09 81.6609 77.9633 81.6609 77.8063C81.6609 77.6493 81.5343 77.5227 81.3773 77.5227C81.221 77.5227 81.0936 77.6499 81.0936 77.8063C81.0936 77.9627 81.221 78.09 81.3773 78.09Z" fill="#A6DACB" stroke="white" stroke-width="1.3"/>
<path d="M87.252 78.09C87.4091 78.09 87.5357 77.9633 87.5357 77.8063C87.5357 77.6493 87.4091 77.5227 87.252 77.5227C87.0958 77.5227 86.9684 77.6499 86.9684 77.8063C86.9684 77.9627 87.0958 78.09 87.252 78.09Z" fill="#A6DACB" stroke="white" stroke-width="1.3"/>
<path d="M93.1335 78.09C93.2905 78.09 93.4172 77.9633 93.4172 77.8063C93.4172 77.6493 93.2905 77.5227 93.1335 77.5227C92.9772 77.5227 92.8498 77.6499 92.8498 77.8063C92.8498 77.9627 92.9772 78.09 93.1335 78.09Z" fill="#A6DACB" stroke="white" stroke-width="1.3"/>
<path d="M99.0028 78.0902C99.1598 78.0902 99.2864 77.9636 99.2864 77.8066C99.2864 77.6495 99.1598 77.5229 99.0028 77.5229C98.8465 77.5229 98.7191 77.6502 98.7191 77.8066C98.7191 77.9629 98.8465 78.0902 99.0028 78.0902Z" fill="#A6DACB" stroke="white" stroke-width="1.3"/>
<path d="M104.89 78.0902C105.047 78.0902 105.173 77.9636 105.173 77.8066C105.173 77.6495 105.047 77.5229 104.89 77.5229C104.733 77.5229 104.606 77.6502 104.606 77.8066C104.606 77.9629 104.733 78.0902 104.89 78.0902Z" fill="#A6DACB" stroke="white" stroke-width="1.3"/>
<path d="M110.762 78.09C110.919 78.09 111.045 77.9633 111.045 77.8063C111.045 77.6493 110.919 77.5227 110.762 77.5227C110.606 77.5227 110.478 77.6499 110.478 77.8063C110.478 77.9627 110.606 78.09 110.762 78.09Z" fill="#A6DACB" stroke="white" stroke-width="1.3"/>
<path d="M116.628 78.09C116.785 78.09 116.912 77.9633 116.912 77.8063C116.912 77.6493 116.785 77.5227 116.628 77.5227C116.472 77.5227 116.344 77.6499 116.344 77.8063C116.344 77.9627 116.472 78.09 116.628 78.09Z" fill="#A6DACB" stroke="white" stroke-width="1.3"/>
<path d="M87.656 124.1V129.149H81.383V124.1H79.445V136H81.383V130.934H87.656V136H89.594V124.1H87.656ZM98.0872 127.84V133.246C97.6282 133.909 96.8462 134.606 95.8092 134.606C94.6022 134.606 93.9052 133.977 93.9052 132.651V127.84H92.0862V132.889C92.0862 134.827 93.2932 136.221 95.4522 136.221C96.6932 136.221 97.6962 135.592 98.2912 134.878V136H99.9062V127.84H98.0872ZM104.035 136V127.84H102.216V136H104.035ZM104.239 125.188C104.239 124.474 103.729 124.117 103.134 124.117C102.539 124.117 102.012 124.474 102.012 125.188C102.012 125.936 102.539 126.276 103.134 126.276C103.729 126.276 104.239 125.936 104.239 125.188ZM112.826 124.1V128.894C112.265 128.248 111.313 127.619 109.885 127.619C107.42 127.619 105.839 129.574 105.839 131.92C105.839 134.266 107.42 136.221 109.885 136.221C111.415 136.221 112.384 135.507 113.013 134.708V136H114.645V124.1H112.826ZM112.809 130.917V132.906C112.418 133.807 111.483 134.623 110.208 134.623C108.746 134.623 107.675 133.518 107.675 131.92C107.675 130.322 108.746 129.217 110.208 129.217C111.483 129.217 112.418 130.033 112.809 130.917Z" fill="#003049"/>
</svg>
