<svg xmlns="http://www.w3.org/2000/svg" width="37" height="26" viewBox="0 0 37 26" fill="none">
<rect x="1" y="1" width="35" height="24" rx="4" stroke="#E5E5E5"/>
<path fill-rule="evenodd" clip-rule="evenodd" d="M10.5137 5.95703H18.8423C24.5019 5.95703 26.6767 9.04998 26.6767 12.9595C26.6767 17.636 23.6369 19.9866 18.8423 19.9866H10.5137V5.95703ZM11.3044 6.79836V19.1949H18.8423C23.3897 19.1949 25.8611 17.0669 25.8611 12.9843C25.8611 8.77784 23.1919 6.79836 18.8423 6.79836H11.3044ZM13.5288 13.2069C14.3614 13.2069 15.0364 12.5312 15.0364 11.6976C15.0364 10.864 14.3614 10.1882 13.5288 10.1882C12.6962 10.1882 12.0212 10.864 12.0212 11.6976C12.0212 12.5312 12.6962 13.2069 13.5288 13.2069ZM12.3179 13.8502H14.7399V18.1556H12.3179V13.8502Z" fill="black"/>
<path fill-rule="evenodd" clip-rule="evenodd" d="M23.1183 10.3103H23.8103V12.3888H24.8236C24.5517 8.603 21.5613 7.76172 18.8427 7.76172H15.9512V10.3103H16.3713C17.1622 10.3103 17.6317 10.8299 17.6317 11.6959C17.6317 12.562 17.1622 13.0816 16.396 13.0816H15.9512V18.154H18.8427C23.2666 18.154 24.7741 16.1003 24.8483 13.0816H23.1183V10.3103ZM19.7819 12.3888V13.0816H18.0519V10.3103H19.7324V11.0031H18.7439V11.3248H19.683V12.0176H18.7686V12.3888H19.7819ZM20.0784 13.0816L20.9186 10.3103H21.9072L22.7475 13.0816H22.0308L21.8825 12.562H20.9681L20.8198 13.0816H20.0784ZM21.1736 11.8444H21.1658V11.8691L21.1736 11.8444ZM21.1736 11.8444H21.6601L21.4377 11.0773H21.413L21.1736 11.8444ZM15.9512 12.3887V11.0031H16.3713C16.6432 11.0031 16.9397 11.0773 16.9397 11.6959C16.9397 12.3145 16.6679 12.3887 16.3713 12.3887H15.9512Z" fill="#D50072"/>
</svg>