<svg xmlns="http://www.w3.org/2000/svg" width="24" height="24" viewBox="0 0 24 24" fill="none">
<path d="M12 4C7.60005 4 4 7.60005 4 12C4 16.3999 7.60005 20 12 20C16.3999 20 20 16.3999 20 12C20 7.60005 16.3999 4 12 4ZM12.8 15.1999C12.8 15.6799 12.48 15.9999 12 15.9999C11.52 15.9999 11.2 15.6799 11.2 15.1999V11.1998C11.2 10.7198 11.52 10.3998 12 10.3998C12.48 10.3998 12.8 10.7198 12.8 11.1998V15.1999ZM12 9.59997C11.52 9.59997 11.2 9.28001 11.2 8.8C11.2 8.31999 11.52 8.00003 12 8.00003C12.48 8.00003 12.8 8.31999 12.8 8.8C12.8 9.28001 12.48 9.59997 12 9.59997Z" fill="#7C878D"/>
</svg>