<svg width="193" height="144" viewBox="0 0 193 144" fill="none" xmlns="http://www.w3.org/2000/svg">
<circle cx="96.5" cy="55" r="55" fill="#003049"/>
<path d="M101.218 69.2959L101.196 69.2948H101.175H101.116C100.241 69.233 99.6605 69.1307 99.2992 69.0237C99.3812 68.9677 99.4776 68.9078 99.5891 68.8448C100.036 68.5921 100.651 68.331 101.367 68.0951C102.805 67.6216 104.527 67.2899 105.893 67.2954C106.583 67.2981 107.111 67.3871 107.454 67.534C107.776 67.6715 107.839 67.8087 107.857 67.9142L107.857 67.9146C107.883 68.0578 107.863 68.1451 107.834 68.2075C107.803 68.2775 107.736 68.3712 107.592 68.4796C107.284 68.7107 106.751 68.9164 106.008 69.0661C104.543 69.3611 102.644 69.3676 101.218 69.2959Z" fill="#F5F5F5" stroke="#F5F5F5" stroke-width="1.7"/>
<path d="M98.3844 21C100.174 32.8774 104.269 38.4432 110.75 48.5428C117.232 58.6424 121.732 62.7343 115.572 68.1417C112.099 71.0196 107.726 72.5871 103.216 72.5708C102.473 72.5756 101.746 72.7861 101.116 73.179C100.486 73.5718 99.9763 74.1316 99.6446 74.7962C98.4643 77.1918 97.2535 81.6282 98.4948 88.9034" stroke="#F5F5F5" stroke-width="1.9" stroke-miterlimit="10" stroke-linecap="round"/>
<path d="M79.1168 54.5469C75.1064 57.4017 74.679 81.5431 98.0136 68.6468C108.923 62.6216 107.753 68.1279 107.753 68.1279" stroke="#F5F5F5" stroke-width="1.9" stroke-miterlimit="10" stroke-linecap="round"/>
<path d="M101.368 62.6108C101.368 62.6108 99.9147 37.01 74.5 34.2656" stroke="#F5F5F5" stroke-width="1.9" stroke-miterlimit="10" stroke-linecap="round" stroke-linejoin="round"/>
<path d="M48.945 124.1V136H57.139V134.198H50.883V124.1H48.945ZM64.3001 127.84V133.246C63.8411 133.909 63.0591 134.606 62.0221 134.606C60.8151 134.606 60.1181 133.977 60.1181 132.651V127.84H58.2991V132.889C58.2991 134.827 59.5061 136.221 61.6651 136.221C62.9061 136.221 63.9091 135.592 64.5041 134.878V136H66.1191V127.84H64.3001ZM67.8849 131.988C67.8849 134.895 70.1119 136.221 72.2879 136.221C73.3249 136.221 74.2089 136.034 74.9909 135.66V133.977C74.3449 134.351 73.4779 134.606 72.6109 134.606C71.1489 134.606 69.7379 133.773 69.7379 131.92C69.7379 129.999 71.1999 129.234 72.6449 129.234C73.4779 129.234 74.3109 129.489 74.9059 129.914V128.248C74.1919 127.823 73.3079 127.619 72.3899 127.619C70.2139 127.619 67.8849 128.945 67.8849 131.988ZM76.762 124.1V136H78.581V130.594C79.04 129.931 79.822 129.234 80.859 129.234C81.947 129.234 82.763 129.863 82.763 131.189V136H84.582V130.951C84.582 129.013 83.273 127.619 81.216 127.619C80.111 127.619 79.176 128.129 78.581 128.741V124.1H76.762ZM87.2848 125.375V127.84H85.8228V129.438H87.2848V133.518C87.2848 135.422 88.5088 136.204 90.0898 136.204C90.8888 136.204 91.6708 136.068 92.2828 135.847V134.283C91.7728 134.487 91.2288 134.606 90.6338 134.606C89.5798 134.606 89.0868 134.249 89.0868 133.178V129.438H92.0448V127.84H89.0868V124.933L87.2848 125.375ZM104.166 127.84L102.347 134.011L100.341 127.84H98.641L96.652 134.011L94.816 127.84H92.895L95.615 136H97.553L99.491 130.152L101.429 136H103.384L106.087 127.84H104.166ZM106.799 131.92C106.799 134.793 108.924 136.221 111.423 136.221C112.562 136.221 113.599 136.017 114.347 135.66V134.096C113.65 134.436 112.749 134.674 111.763 134.674C110.267 134.674 108.839 134.062 108.635 132.6H114.772C115.299 130.237 114.177 127.619 110.93 127.619C109.043 127.619 106.799 128.962 106.799 131.92ZM113.14 131.24H108.618C108.686 129.863 109.791 129.132 111.015 129.132C112.8 129.132 113.242 130.526 113.14 131.24ZM116.112 131.92C116.112 134.266 117.693 136.221 120.158 136.221C121.586 136.221 122.538 135.575 123.099 134.912V135.949C123.099 137.785 121.722 138.363 120.107 138.363C119.002 138.363 117.914 138.074 116.979 137.53V139.196C117.948 139.689 119.104 139.961 120.345 139.961C122.674 139.961 124.918 138.839 124.918 135.898V127.84H123.286V129.115C122.657 128.333 121.688 127.619 120.158 127.619C117.693 127.619 116.112 129.574 116.112 131.92ZM123.082 130.917V133.025C122.691 133.858 121.756 134.623 120.481 134.623C119.019 134.623 117.948 133.518 117.948 131.92C117.948 130.322 119.019 129.217 120.481 129.217C121.756 129.217 122.691 130.033 123.082 130.917ZM126.688 131.92C126.688 134.793 128.813 136.221 131.312 136.221C132.451 136.221 133.488 136.017 134.236 135.66V134.096C133.539 134.436 132.638 134.674 131.652 134.674C130.156 134.674 128.728 134.062 128.524 132.6H134.661C135.188 130.237 134.066 127.619 130.819 127.619C128.932 127.619 126.688 128.962 126.688 131.92ZM133.029 131.24H128.507C128.575 129.863 129.68 129.132 130.904 129.132C132.689 129.132 133.131 130.526 133.029 131.24ZM138.126 128.962V127.84H136.511V136H138.33V130.594C138.789 129.931 139.571 129.234 140.608 129.234C141.696 129.234 142.512 129.863 142.512 131.189V136H144.331V130.951C144.331 129.013 143.022 127.619 140.965 127.619C139.724 127.619 138.721 128.248 138.126 128.962Z" fill="#003049"/>
</svg>
