<svg xmlns="http://www.w3.org/2000/svg" width="37" height="26" viewBox="0 0 37 26" fill="none">
<rect x="1" y="1" width="35" height="24" rx="4" fill="white"/>
<path fill-rule="evenodd" clip-rule="evenodd" d="M18.75 18.1569C17.5584 19.1852 16.0128 19.806 14.3238 19.806C10.5551 19.806 7.5 16.7154 7.5 12.903C7.5 9.09057 10.5551 6 14.3238 6C16.0128 6 17.5584 6.62075 18.75 7.64903C19.9416 6.62075 21.4872 6 23.1762 6C26.9449 6 30 9.09057 30 12.903C30 16.7154 26.9449 19.806 23.1762 19.806C21.4872 19.806 19.9416 19.1852 18.75 18.1569Z" fill="#ED0006"/>
<path fill-rule="evenodd" clip-rule="evenodd" d="M18.75 18.1569C20.2172 16.8908 21.1475 15.0068 21.1475 12.903C21.1475 10.7992 20.2172 8.91517 18.75 7.64903C19.9416 6.62075 21.4872 6 23.1762 6C26.9449 6 30 9.09057 30 12.903C30 16.7154 26.9449 19.806 23.1762 19.806C21.4872 19.806 19.9416 19.1852 18.75 18.1569Z" fill="#F9A000"/>
<path fill-rule="evenodd" clip-rule="evenodd" d="M18.7491 7.64844C20.2163 8.91457 21.1466 10.7986 21.1466 12.9024C21.1466 15.0062 20.2163 16.8902 18.7491 18.1563C17.2819 16.8902 16.3516 15.0062 16.3516 12.9024C16.3516 10.7986 17.2819 8.91457 18.7491 7.64844Z" fill="#FF5E00"/>
<rect x="1" y="1" width="35" height="24" rx="4" stroke="#E5E5E5"/>
</svg>