<svg xmlns="http://www.w3.org/2000/svg" width="37" height="26" viewBox="0 0 37 26" fill="none">
<rect x="1" y="1" width="35" height="24" rx="4" fill="white"/>
<path fill-rule="evenodd" clip-rule="evenodd" d="M13.4884 14.1168H17.3767L19.5537 11.9219H23.4554L20.1422 15.4023H7.88867V13.0777H14.4604L13.4884 14.1168Z" fill="#2D78BB"/>
<path fill-rule="evenodd" clip-rule="evenodd" d="M23.4553 11.9212H19.5537L17.3767 14.1288H13.4609L16.7742 10.6484H29.0416V12.9601H22.4697L23.4553 11.9212Z" fill="#F8E14B"/>
<path fill-rule="evenodd" clip-rule="evenodd" d="M27.4677 9.79368C27.2897 9.89751 27.0571 9.94955 26.8377 9.94955C26.208 9.94955 25.6466 9.50803 25.6466 8.89766C25.6466 8.28716 26.1533 7.84563 26.7967 7.84563C27.0296 7.84563 27.2897 7.88457 27.4677 7.98853V8.63783C27.3309 8.52089 27.1255 8.48196 26.8927 8.48196C26.6736 8.48196 26.4135 8.65081 26.4135 8.92348C26.4135 9.15722 26.6736 9.30011 26.8927 9.30011C27.139 9.30011 27.2897 9.28714 27.4677 9.15736V9.79368ZM29.0695 9.30011V9.79368C28.5081 10.1833 27.8647 9.85857 27.8647 9.40407V8.49507H27.5906V7.89755H27.8647V7.41709L28.6313 7.02734V7.89755H29.0695V8.44303H28.6725V9.28714C28.6723 9.44301 28.9461 9.43003 29.0695 9.30011ZM23.5246 8.54699L23.6479 7.98853C24.4145 7.74181 25.5098 7.88457 25.5098 8.53401V9.91062H24.798L24.7705 9.8456C24.442 10.0404 23.2372 10.1314 23.4014 9.23522C23.4972 8.70272 24.1408 8.57294 24.5378 8.57294C24.7433 8.57294 24.8254 8.39098 24.5652 8.37814C24.3322 8.36502 23.8669 8.39098 23.5246 8.54699ZM10.6001 8.54699L10.7097 7.98853C11.4764 7.74181 12.5717 7.88457 12.5717 8.53401V9.91062H11.8461L11.8324 9.8456C11.5176 10.0404 10.2716 10.1314 10.4633 9.23522C10.5592 8.70272 11.1889 8.57294 11.586 8.57294C11.7914 8.57294 11.8735 8.39098 11.6271 8.37814C11.3942 8.36502 10.915 8.39098 10.6001 8.54699ZM19.3763 8.92348C19.3763 9.53385 18.842 9.9624 18.1987 9.9624C17.5552 9.9624 17.0076 9.5079 17.0076 8.89753C17.0076 8.30013 17.5552 7.83252 18.185 7.83252C18.842 7.83266 19.3763 8.30013 19.3763 8.92348ZM23.2644 9.30011V9.79368C22.6894 10.1833 22.0597 9.85857 22.0597 9.40407V8.49507H21.7856V7.89755H22.0597V7.41709L22.8399 7.02734V7.89755H23.2644V8.44303H22.8538V9.28714C22.8538 9.44301 23.1411 9.43003 23.2644 9.30011Z" fill="#2D78BB"/>
<path fill-rule="evenodd" clip-rule="evenodd" d="M9.32632 6.88281C10.0382 6.88281 10.5585 7.77897 9.90134 8.33729C10.7229 8.81788 10.3532 9.88262 9.43587 9.89573H7.90234V6.88281H9.32632ZM16.87 9.79191C16.692 9.89573 16.4867 9.94778 16.2538 9.94778C15.6103 9.94778 15.0627 9.50626 15.0627 8.89589C15.0627 8.28538 15.5694 7.84386 16.1991 7.84386C16.4318 7.84386 16.6919 7.88279 16.87 7.98675V8.63606C16.7194 8.51912 16.5414 8.48019 16.3087 8.48019C16.0759 8.48019 15.8158 8.64903 15.8158 8.92171C15.8158 9.15545 16.0896 9.29834 16.3087 9.29834C16.5414 9.29834 16.692 9.28536 16.87 9.15558V9.79191ZM14.9123 8.59699V9.90871H14.1456V8.77881C14.1456 8.37623 13.5295 8.3892 13.5295 8.77881V9.90871H12.7628V7.89577H13.5433V8.06462C14.1866 7.60998 14.9123 8.02569 14.9123 8.59699ZM21.6758 8.59699V9.90871H20.9089V8.77881C20.9089 8.37623 20.2929 8.3892 20.2929 8.77881V9.90871H19.5263V7.89577H20.2929V8.06462C20.95 7.60998 21.6758 8.02569 21.6758 8.59699ZM24.5647 8.37636C24.8248 8.38934 24.7427 8.57117 24.5372 8.57117C24.1403 8.57117 23.4966 8.70095 23.4008 9.23345C23.2364 10.1296 24.4415 10.0386 24.77 9.84382L24.7974 9.90885H25.5092V8.5321C25.5092 7.88279 24.4139 7.7399 23.6474 7.98662L23.524 8.54507C23.8663 8.3892 24.3316 8.36325 24.5647 8.37636Z" fill="#2D78BB"/>
<path fill-rule="evenodd" clip-rule="evenodd" d="M11.6271 8.37814C11.8735 8.39112 11.7914 8.57294 11.5861 8.57294C11.1889 8.57294 10.5592 8.70272 10.4633 9.23522C10.2716 10.1314 11.5176 10.0404 11.8324 9.8456L11.8461 9.91062H12.5717V8.53387C12.5717 7.88457 11.4765 7.74167 10.7097 7.98839L10.6001 8.54685C10.9151 8.39098 11.3944 8.36502 11.6271 8.37814ZM18.1852 7.83266C17.5555 7.83266 17.0077 8.30027 17.0077 8.89766C17.0077 9.50803 17.5553 9.96253 18.1988 9.96253C18.8422 9.96253 19.3764 9.53399 19.3764 8.92362C19.3764 8.30013 18.8422 7.83266 18.1852 7.83266ZM22.854 9.28714V8.44303H23.2646V7.89755H22.84V7.02734L22.0598 7.41709V7.89755H21.7858V8.49507H22.0598V9.40407C22.0598 9.85857 22.6896 10.1833 23.2646 9.79368V9.30011C23.1413 9.43003 22.854 9.44301 22.854 9.28714Z" fill="#2D78BB"/>
<path fill-rule="evenodd" clip-rule="evenodd" d="M7.90234 6.88281V9.89573H9.43572C10.353 9.88275 10.7227 8.81788 9.90119 8.33729C10.5583 7.77883 10.038 6.88281 9.32618 6.88281H7.90234ZM16.87 9.15558C16.692 9.28536 16.5414 9.29834 16.3087 9.29834C16.0896 9.29834 15.8158 9.15558 15.8158 8.92171C15.8158 8.6489 16.0758 8.48019 16.3087 8.48019C16.5414 8.48019 16.7194 8.51912 16.87 8.63606V7.98675C16.692 7.88279 16.4318 7.84386 16.1991 7.84386C15.5694 7.84386 15.0627 8.28538 15.0627 8.89589C15.0627 9.50626 15.6103 9.94778 16.2538 9.94778C16.4865 9.94778 16.692 9.89587 16.87 9.79191V9.15558ZM13.5431 8.06462V7.89577H12.7626V9.90871H13.5293V8.77881C13.5293 8.3892 14.1454 8.37623 14.1454 8.77881V9.90871H14.9121V8.59699C14.9123 8.02569 14.1866 7.60998 13.5431 8.06462ZM20.2927 8.06462V7.89577H19.5262V9.90871H20.2927V8.77881C20.2927 8.3892 20.9088 8.37623 20.9088 8.77881V9.90871H21.6756V8.59699C21.6758 8.02569 20.95 7.60998 20.2927 8.06462ZM27.4672 9.15558C27.2891 9.28536 27.1384 9.29834 26.8922 9.29834C26.6731 9.29834 26.4129 9.15558 26.4129 8.92171C26.4129 8.6489 26.6731 8.48019 26.8922 8.48019C27.1249 8.48019 27.3303 8.51912 27.4672 8.63606V7.98675C27.2891 7.88279 27.029 7.84386 26.7961 7.84386C26.1527 7.84386 25.6461 8.28538 25.6461 8.89589C25.6461 9.50626 26.2074 9.94778 26.8372 9.94778C27.0565 9.94778 27.2891 9.89587 27.4672 9.79191V9.15558ZM28.6718 9.28536V8.44125H29.0687V7.89577H28.6306V7.02557L27.8642 7.41532V7.89577H27.5901V8.4933H27.8642V9.4023C27.8642 9.8568 28.5075 10.1815 29.0689 9.79191V9.29834C28.9456 9.42825 28.6718 9.44123 28.6718 9.28536ZM18.6363 8.92171C18.6363 9.14247 18.4308 9.32429 18.1981 9.32429C17.9654 9.32429 17.7737 9.14247 17.7737 8.89575C17.7737 8.63606 17.9654 8.49316 18.1981 8.49316C18.4308 8.49316 18.6363 8.63606 18.6363 8.92171Z" fill="#2D78BB"/>
<path fill-rule="evenodd" clip-rule="evenodd" d="M8.7793 8.69024H9.12158C9.54599 8.69024 9.58705 9.30061 9.13522 9.30061H8.7793V8.69024ZM11.805 9.02794V9.27479C11.805 9.54746 11.23 9.62533 11.23 9.33968C11.23 9.07985 11.6407 9.00198 11.805 9.02794ZM24.7433 9.02794V9.27479C24.7433 9.54746 24.1819 9.62533 24.1819 9.33968C24.1819 9.07985 24.5925 9.00198 24.7433 9.02794ZM9.12172 7.49545C9.51871 7.6643 9.38174 8.06689 9.13536 8.06689H8.77944V7.49545C8.7793 7.48248 9.02582 7.4695 9.12172 7.49545Z" fill="#2D78BB"/>
<path fill-rule="evenodd" clip-rule="evenodd" d="M18.1988 8.49557C17.9661 8.49557 17.7744 8.63833 17.7744 8.89816C17.7744 9.14488 17.9661 9.3267 18.1988 9.3267C18.4316 9.3267 18.637 9.14488 18.637 8.92412C18.637 8.63833 18.4316 8.49557 18.1988 8.49557ZM24.1819 9.33954C24.1819 9.62519 24.7433 9.54733 24.7433 9.27466V9.0278C24.5925 9.00198 24.1819 9.07985 24.1819 9.33954ZM8.7793 7.49545V8.06689H9.13522C9.38174 8.06689 9.51871 7.6643 9.12158 7.49545C9.02582 7.4695 8.7793 7.48248 8.7793 7.49545ZM11.23 9.33954C11.23 9.62519 11.805 9.54733 11.805 9.27466V9.0278C11.6407 9.00198 11.23 9.07985 11.23 9.33954ZM8.7793 9.30061H9.13522C9.58705 9.30061 9.54599 8.69024 9.12158 8.69024H8.7793V9.30061Z" fill="white"/>
<path fill-rule="evenodd" clip-rule="evenodd" d="M17.4178 18.1173C17.4178 17.4161 17.1164 16.9614 16.3634 16.9614C15.6515 16.9614 15.227 17.4681 15.227 18.0394C15.227 18.6629 15.7336 19.1174 16.4455 19.1174C17.0616 19.1174 17.3766 18.8837 17.3766 18.8837V18.2863C17.1164 18.4162 16.829 18.4941 16.6235 18.4941C16.2128 18.4941 15.9938 18.39 15.9938 18.1173H17.4178ZM9.38102 18.2214L10.0107 17.364V19.0652H10.8323L10.8459 16.1172H10.0107L9.38102 17.0004L8.73752 16.1172H7.90234L7.91613 19.0652H8.73752V17.364L9.38102 18.2214ZM18.3077 17.8835C18.3898 17.7147 18.5677 17.5719 18.8004 17.5719C18.9237 17.5719 19.0606 17.6237 19.1566 17.6887V17.0524C19.088 16.9745 18.9786 16.9483 18.869 16.9483C18.6775 16.9483 18.4172 17.0524 18.3077 17.1823V16.9745H17.5684V19.0654H18.3077V17.8835ZM12.0097 18.9356C12.2699 19.0394 12.5848 19.0783 12.7901 19.0783C13.5842 19.0783 13.8169 18.6887 13.8169 18.364C13.8169 17.9872 13.4061 17.7797 13.0366 17.7277C12.9817 17.7277 12.8311 17.6887 12.8311 17.6236C12.8311 17.5718 12.8723 17.5068 13.0502 17.5068C13.2008 17.5068 13.4746 17.5588 13.6116 17.6236L13.5843 17.0782C13.3789 17.0133 13.0914 16.9614 12.8723 16.9614C12.4205 16.9614 12.0234 17.2213 12.0234 17.6367C12.0234 17.9614 12.2699 18.1303 12.6669 18.2083C12.8311 18.2214 12.9817 18.2861 12.9817 18.3641C12.9817 18.468 12.8723 18.4941 12.7626 18.4941C12.6669 18.4941 12.4205 18.5199 12.0097 18.3641V18.9356Z" fill="#2D78BB"/>
<path fill-rule="evenodd" clip-rule="evenodd" d="M14.818 18.4288V17.5718H15.2424V17.0134H14.7905V16.1171L14.0102 16.5069V17.0134H13.7364V17.6107H14.0102V18.546C14.0102 19.0135 14.6537 19.3251 15.2425 18.9356V18.4289C15.119 18.546 14.818 18.5718 14.818 18.4288ZM11.8742 19.0393V17.0134H11.0527V19.0393H11.8742ZM11.4635 16.9482C11.71 16.9482 11.9153 16.7534 11.9153 16.5196C11.9153 16.299 11.7098 16.1171 11.4635 16.1171C11.2307 16.1171 11.0391 16.299 11.0391 16.5196C11.0392 16.7535 11.2307 16.9482 11.4635 16.9482ZM24.9631 18.9354C25.2233 19.0393 25.5381 19.0782 25.7436 19.0782C26.5377 19.0782 26.7839 18.6886 26.7839 18.3639C26.7839 17.9871 26.3733 17.7796 25.9898 17.7275C25.9351 17.7275 25.7844 17.6886 25.7844 17.6235C25.7844 17.5717 25.8254 17.5066 26.0172 17.5066C26.1677 17.5066 26.4279 17.5587 26.5783 17.6235L26.5376 17.0781C26.3321 17.0132 26.0445 16.9613 25.8254 16.9613C25.3737 16.9613 24.9766 17.2211 24.9766 17.6366C24.9766 17.9613 25.2231 18.1301 25.6203 18.2081C25.7844 18.2213 25.9351 18.286 25.9351 18.364C25.9351 18.4678 25.8254 18.4939 25.716 18.4939C25.6203 18.4939 25.3737 18.5197 24.9631 18.364V18.9354ZM22.5535 18.2081C22.2933 18.3898 22.0879 18.4288 21.7456 18.4288C21.2256 18.4288 20.76 18.0262 20.76 17.6107C20.76 17.1561 21.0201 16.7276 21.7456 16.7276C22.0744 16.7276 22.348 16.7796 22.5535 16.9613V16.2601C22.2933 16.1171 21.9374 16.0781 21.6226 16.0781C20.6777 16.0781 19.9522 16.7145 19.9522 17.5848C19.9522 18.4417 20.7463 19.0912 21.6773 19.0912C21.9921 19.0912 22.2933 19.026 22.5535 18.8834V18.2081ZM23.8678 17.468C24.1279 17.4808 24.0458 17.6756 23.8404 17.6756C23.4297 17.6756 22.7726 17.8055 22.6903 18.3382C22.5123 19.2472 23.7446 19.1693 24.0729 18.9745L24.1004 19.0263H24.8398V17.6236C24.8398 16.9613 23.717 16.8314 22.9229 17.0782L22.8135 17.6367C23.1559 17.4808 23.6352 17.4549 23.8678 17.468ZM27.6602 17.1692V16.1172H26.8936V19.0652H27.6602V17.9094C27.6602 17.5198 28.2899 17.5068 28.2899 17.9094V19.0652H29.0704V17.7277C29.0704 17.1302 28.3309 16.7145 27.6602 17.1692Z" fill="#2D78BB"/>
<path fill-rule="evenodd" clip-rule="evenodd" d="M15.9668 17.7127C16.0079 17.5179 16.1723 17.4531 16.3229 17.4531C16.4735 17.4531 16.6651 17.518 16.6651 17.7127H15.9668ZM24.0448 18.1284V18.3752C24.0448 18.661 23.4697 18.7258 23.4697 18.4401C23.4697 18.1804 23.894 18.1153 24.0448 18.1284Z" fill="white"/>
<rect x="1" y="1" width="35" height="24" rx="4" stroke="#E5E5E5"/>
</svg>