<svg width="27" height="15" viewBox="0 0 27 15" fill="none" xmlns="http://www.w3.org/2000/svg">
<path fill-rule="evenodd" clip-rule="evenodd" d="M13.312 0.000399691C9.01452 0.00563153 4.73746 2.4062 0.641182 7.02237C0.636924 7.02718 0.627395 7.02697 0.622935 7.03158V7.03179C0.603268 7.0523 0.58502 7.07427 0.568394 7.0975C0.544469 7.12659 0.523181 7.15798 0.504931 7.19126C0.501889 7.19419 0.498848 7.19733 0.495807 7.20047C0.489319 7.21281 0.483236 7.22516 0.47756 7.23793C0.474518 7.2442 0.471477 7.25027 0.468638 7.25655C0.46215 7.2689 0.456067 7.28145 0.450391 7.29401C0.446944 7.30657 0.443903 7.31891 0.441267 7.33147C0.438226 7.33775 0.435184 7.34382 0.432346 7.3501C0.432143 7.35637 0.432143 7.36265 0.432346 7.36872C0.428696 7.38421 0.425655 7.3999 0.423222 7.4156V7.42502C0.419573 7.4405 0.416531 7.45599 0.414098 7.47189V7.4811C0.413693 7.51877 0.416734 7.55644 0.423222 7.5937C0.423019 7.59976 0.423019 7.60604 0.423222 7.61232C0.425858 7.62488 0.428899 7.63743 0.432346 7.64978C0.435184 7.65292 0.438226 7.65606 0.441267 7.65899C0.4437 7.67468 0.446741 7.69038 0.450391 7.70587L0.459514 7.71528C0.484453 7.78414 0.521353 7.84755 0.568394 7.90279C0.592927 7.93356 0.620298 7.96181 0.650304 7.98713C4.74404 12.5954 9.01777 14.9946 13.3123 15C17.6031 15.005 21.8033 12.6113 25.7657 7.98713C25.775 7.97792 25.7841 7.96871 25.7929 7.95888C25.7971 7.95385 25.8068 7.95427 25.8111 7.94967H25.8109C25.8273 7.93188 25.8423 7.91305 25.8563 7.89337C25.8691 7.88145 25.8813 7.86889 25.8928 7.85591V7.8465C25.9023 7.83436 25.9115 7.82201 25.92 7.80904V7.79983C25.9297 7.78455 25.9388 7.76885 25.9472 7.75295V7.74353C25.9569 7.72846 25.966 7.71277 25.9745 7.69665V7.68745C25.9812 7.67196 25.9873 7.65647 25.9926 7.64057V7.63115C25.9962 7.61567 25.9993 7.59997 26.0017 7.58427V7.57507C26.0025 7.55623 26.0025 7.53761 26.0017 7.51877V7.50956C26.0023 7.49387 26.0023 7.47817 26.0017 7.46269V7.45327C25.9991 7.41518 25.993 7.37751 25.9834 7.34068V7.33147C25.9782 7.31556 25.9721 7.29987 25.9654 7.28459V7.27538C25.95 7.24232 25.9317 7.21114 25.9109 7.18163V7.17221C25.9023 7.15944 25.8932 7.14689 25.8837 7.13475V7.12554C25.848 7.07511 25.8052 7.03095 25.7564 6.99412C21.798 2.37838 17.5986 -0.00481438 13.3123 7.3018e-06L13.312 0.000399691ZM13.2121 2.43803C15.9068 2.43803 18.1079 4.70679 18.1079 7.49136C18.1079 10.276 15.9068 12.5447 13.2121 12.5447C10.5149 12.5447 8.31626 10.2757 8.31626 7.49136C8.31626 4.70673 10.5149 2.43803 13.2121 2.43803Z" fill="#7C878D"/>
<path fill-rule="evenodd" clip-rule="evenodd" d="M13.2063 6.17969C13.9444 6.17969 14.5299 6.76517 14.5299 7.50322C14.5299 8.24126 13.9444 8.82675 13.2063 8.82675C12.4683 8.82675 11.8828 8.24126 11.8828 7.50322C11.8828 6.76517 12.4683 6.17969 13.2063 6.17969Z" fill="#7C878D"/>
</svg>
