<svg xmlns="http://www.w3.org/2000/svg" width="37" height="26" viewBox="0 0 37 26" fill="none">
<rect x="1" y="1" width="35" height="24" rx="4" fill="white"/>
<path fill-rule="evenodd" clip-rule="evenodd" d="M10.9 16.2383H9.34439C9.23794 16.2383 9.1474 16.3156 9.1308 16.4207L8.50163 20.4098C8.48913 20.4885 8.55009 20.5594 8.62993 20.5594H9.37259C9.47905 20.5594 9.56958 20.4821 9.58618 20.3768L9.75588 19.3009C9.77225 19.1956 9.863 19.1183 9.96924 19.1183H10.4617C11.4864 19.1183 12.0778 18.6224 12.2323 17.6398C12.3019 17.2099 12.2353 16.8721 12.0339 16.6354C11.8129 16.3758 11.4206 16.2383 10.9 16.2383ZM11.0795 17.6952C10.9944 18.2534 10.5679 18.2534 10.1555 18.2534H9.92078L10.0855 17.2109C10.0952 17.148 10.1498 17.1015 10.2135 17.1015H10.3211C10.602 17.1015 10.8671 17.1015 11.004 17.2617C11.0856 17.3572 11.1106 17.4991 11.0795 17.6952ZM15.5501 17.6773H14.8052C14.7417 17.6773 14.6869 17.7238 14.6771 17.7868L14.6441 17.9951L14.592 17.9197C14.4308 17.6855 14.0712 17.6073 13.7122 17.6073C12.889 17.6073 12.1859 18.2308 12.049 19.1054C11.9778 19.5417 12.079 19.9588 12.3264 20.2498C12.5535 20.5172 12.8783 20.6287 13.2647 20.6287C13.928 20.6287 14.2959 20.2022 14.2959 20.2022L14.2626 20.4092C14.2501 20.4884 14.3111 20.5593 14.3904 20.5593H15.0615C15.1682 20.5593 15.2582 20.482 15.2751 20.3767L15.6777 17.827C15.6904 17.7486 15.6297 17.6773 15.5501 17.6773ZM14.5117 19.1272C14.4398 19.5528 14.102 19.8385 13.6713 19.8385C13.455 19.8385 13.282 19.7691 13.1711 19.6377C13.061 19.5071 13.0191 19.3212 13.0541 19.1143C13.1213 18.6923 13.4647 18.3973 13.889 18.3973C14.1004 18.3973 14.2724 18.4675 14.3857 18.6002C14.4992 18.7342 14.5442 18.9211 14.5117 19.1272ZM18.769 17.6772H19.5176C19.6224 17.6772 19.6836 17.7948 19.624 17.8808L17.1342 21.4747C17.0939 21.5329 17.0275 21.5676 16.9565 21.5676H16.2089C16.1036 21.5676 16.0421 21.449 16.1031 21.3628L16.8783 20.2685L16.0538 17.8487C16.0253 17.7646 16.0874 17.6772 16.1769 17.6772H16.9124C17.008 17.6772 17.0923 17.74 17.1199 17.8314L17.5575 19.2929L18.59 17.7721C18.6304 17.7127 18.6976 17.6772 18.769 17.6772Z" fill="#253B80"/>
<path fill-rule="evenodd" clip-rule="evenodd" d="M26.8851 20.41L27.5236 16.348C27.5334 16.2849 27.588 16.2385 27.6515 16.2383H28.3702C28.4496 16.2383 28.5105 16.3094 28.498 16.3882L27.8684 20.377C27.852 20.4823 27.7615 20.5597 27.6548 20.5597H27.0129C26.9336 20.5597 26.8726 20.4887 26.8851 20.41ZM21.9958 16.2385H20.4399C20.3337 16.2385 20.2431 16.3159 20.2265 16.4209L19.5973 20.41C19.5848 20.4887 19.6458 20.5597 19.7252 20.5597H20.5236C20.5978 20.5597 20.6612 20.5056 20.6728 20.4319L20.8513 19.3011C20.8678 19.1958 20.9585 19.1185 21.0647 19.1185H21.5569C22.5819 19.1185 23.1731 18.6226 23.3278 17.64C23.3976 17.2101 23.3305 16.8723 23.1292 16.6357C22.9083 16.376 22.5164 16.2385 21.9958 16.2385ZM22.1752 17.6954C22.0904 18.2537 21.6639 18.2537 21.2512 18.2537H21.0167L21.1817 17.2111C21.1914 17.1482 21.2456 17.1018 21.3094 17.1018H21.417C21.6978 17.1018 21.963 17.1018 22.0999 17.2619C22.1816 17.3574 22.2064 17.4993 22.1752 17.6954ZM26.6455 17.6775H25.901C25.837 17.6775 25.7827 17.724 25.7731 17.787L25.7402 17.9953L25.6879 17.9199C25.5266 17.6858 25.1672 17.6075 24.8083 17.6075C23.985 17.6075 23.2822 18.231 23.1452 19.1057C23.0743 19.5419 23.175 19.959 23.4225 20.25C23.65 20.5174 23.9744 20.6289 24.3608 20.6289C25.0241 20.6289 25.3919 20.2024 25.3919 20.2024L25.3587 20.4094C25.3462 20.4886 25.4071 20.5596 25.487 20.5596H26.1578C26.264 20.5596 26.3545 20.4822 26.3711 20.3769L26.774 17.8272C26.7863 17.7488 26.7254 17.6775 26.6455 17.6775ZM25.6071 19.1274C25.5357 19.553 25.1975 19.8387 24.7666 19.8387C24.5507 19.8387 24.3775 19.7693 24.2664 19.6379C24.1563 19.5073 24.1149 19.3214 24.1496 19.1145C24.217 18.6925 24.5601 18.3975 24.9843 18.3975C25.1959 18.3975 25.3678 18.4678 25.4811 18.6004C25.595 18.7344 25.6401 18.9213 25.6071 19.1274Z" fill="#179BD7"/>
<path d="M16.6576 14.8138L16.8489 13.5991L16.4229 13.5892H14.3887L15.8024 4.62534C15.8067 4.59828 15.821 4.57305 15.8418 4.55513C15.8627 4.53722 15.8894 4.52734 15.9172 4.52734H19.3472C20.4859 4.52734 21.2717 4.7643 21.6821 5.232C21.8744 5.45141 21.9969 5.68068 22.0562 5.933C22.1183 6.19776 22.1194 6.51406 22.0587 6.89985L22.0543 6.92801V7.1752L22.2467 7.28418C22.4087 7.37011 22.5373 7.46848 22.6361 7.58111C22.8007 7.7687 22.9071 8.00712 22.9521 8.28978C22.9985 8.5805 22.9831 8.92643 22.9071 9.31807C22.8193 9.76859 22.6774 10.161 22.4859 10.482C22.3095 10.7779 22.085 11.0232 21.8185 11.2134C21.564 11.394 21.2615 11.5312 20.9196 11.619C20.5883 11.7052 20.2106 11.7488 19.7963 11.7488H19.5293C19.3385 11.7488 19.153 11.8175 19.0075 11.9408C18.8616 12.0665 18.765 12.2383 18.7354 12.4263L18.7153 12.5357L18.3774 14.6767L18.3621 14.7553C18.3581 14.7802 18.3511 14.7927 18.3409 14.8011C18.3317 14.8087 18.3186 14.8138 18.3057 14.8138H16.6576Z" fill="#253B80"/>
<path d="M22.4289 6.95703C22.4187 7.02248 22.407 7.0894 22.3938 7.15815C21.9414 9.48056 20.3939 10.2829 18.4174 10.2829H17.4111C17.1694 10.2829 16.9657 10.4584 16.928 10.6968L16.4127 13.9645L16.2668 14.8907C16.2423 15.0473 16.3631 15.1884 16.521 15.1884H18.3059C18.5173 15.1884 18.6967 15.0348 18.73 14.8264L18.7476 14.7357L19.0837 12.603L19.1053 12.4861C19.1381 12.2769 19.318 12.1234 19.5294 12.1234H19.7963C21.5256 12.1234 22.8794 11.4213 23.2751 9.38951C23.4403 8.54077 23.3548 7.8321 22.9174 7.33367C22.7851 7.18338 22.6209 7.05868 22.4289 6.95703Z" fill="#179BD7"/>
<path d="M21.9554 6.76783C21.8864 6.74771 21.815 6.72943 21.7419 6.71297C21.6684 6.69689 21.593 6.68263 21.5155 6.6702C21.2442 6.62631 20.9469 6.60547 20.6284 6.60547H17.9399C17.8737 6.60547 17.8109 6.62046 17.7546 6.64752C17.6306 6.70712 17.5385 6.82451 17.5162 6.96822L16.9442 10.5906L16.9277 10.6963C16.9654 10.4579 17.1691 10.2823 17.4108 10.2823H18.4171C20.3936 10.2823 21.9412 9.47969 22.3935 7.15764C22.407 7.08889 22.4184 7.02197 22.4286 6.95652C22.3142 6.89582 22.1902 6.84389 22.0567 6.79964C22.0239 6.78867 21.9899 6.77807 21.9554 6.76783Z" fill="#222D65"/>
<path d="M17.5156 6.96769C17.5379 6.82397 17.6301 6.70659 17.754 6.64735C17.8107 6.62029 17.8733 6.6053 17.9394 6.6053H20.6279C20.9464 6.6053 21.2437 6.62614 21.5149 6.67002C21.5925 6.68246 21.6679 6.69672 21.7414 6.7128C21.8145 6.72927 21.8858 6.74755 21.9549 6.76766C21.9893 6.7779 22.0233 6.7885 22.0565 6.79911C22.19 6.84335 22.314 6.89565 22.4284 6.95598C22.5631 6.09774 22.4274 5.51339 21.9634 4.98425C21.4518 4.40173 20.5284 4.15234 19.3469 4.15234H15.9168C15.6755 4.15234 15.4697 4.32786 15.4323 4.56665L14.0037 13.6226C13.9755 13.8018 14.1137 13.9635 14.2943 13.9635H16.412L16.9437 10.5901L17.5156 6.96769Z" fill="#253B80"/>
<rect x="1" y="1" width="35" height="24" rx="4" stroke="#E5E5E5"/>
</svg>