<svg xmlns="http://www.w3.org/2000/svg" width="317" height="24" viewBox="0 0 317 24" fill="none">
<rect width="35" height="24" rx="4" fill="#FEB4C7"/>
<path fill-rule="evenodd" clip-rule="evenodd" d="M5.42416 15.3796H4V9H5.42416V15.3796ZM8.97973 9H7.58645C7.58645 10.174 7.06142 11.2516 6.14601 11.9565L5.59402 12.3815L7.73282 15.3799H9.49132L7.52334 12.6209C8.4562 11.666 8.97973 10.3811 8.97973 9ZM11.2513 15.3779H9.90633V9.00122H11.2513V15.3779ZM15.3148 10.9669V11.249C14.9519 10.9945 14.5139 10.845 14.0415 10.845C12.7911 10.845 11.7775 11.887 11.7775 13.1725C11.7775 14.4579 12.7911 15.5 14.0415 15.5C14.5139 15.5 14.9519 15.3504 15.3148 15.096V15.3779H16.5995V10.9669H15.3148ZM15.3109 13.1726C15.3109 13.7994 14.7898 14.3075 14.1469 14.3075C13.5041 14.3075 12.9829 13.7994 12.9829 13.1726C12.9829 12.5458 13.5041 12.0378 14.1469 12.0378C14.7898 12.0378 15.3109 12.5458 15.3109 13.1726ZM28.8671 11.249V10.9669H30.1517V15.3779H28.8671V15.096C28.5042 15.3504 28.0662 15.5 27.5937 15.5C26.3433 15.5 25.3297 14.4579 25.3297 13.1725C25.3297 11.887 26.3433 10.845 27.5937 10.845C28.0662 10.845 28.5042 10.9945 28.8671 11.249ZM27.6991 14.3075C28.342 14.3075 28.8631 13.7994 28.8631 13.1726C28.8631 12.5458 28.342 12.0378 27.6991 12.0378C27.0563 12.0378 26.5352 12.5458 26.5352 13.1726C26.5352 13.7994 27.0563 14.3075 27.6991 14.3075ZM23.047 10.8483C22.5338 10.8483 22.0482 11.0121 21.7235 11.464V10.9672H20.4445V15.378H21.7392V13.06C21.7392 12.3892 22.1768 12.0608 22.7035 12.0608C23.2681 12.0608 23.5927 12.4075 23.5927 13.0509V15.378H24.8757V12.5729C24.8757 11.5464 24.0819 10.8483 23.047 10.8483ZM18.5866 10.9669V11.5414C18.8442 11.1968 19.324 10.9671 19.8456 10.9671V12.2507L19.8411 12.2505L19.8385 12.2504L19.8304 12.2501C19.3221 12.2501 18.5896 12.6236 18.5896 13.3184V15.3778H17.2714V10.9669H18.5866ZM30.7092 14.642C30.7092 14.1843 31.0701 13.8133 31.5153 13.8133C31.9605 13.8133 32.3214 14.1843 32.3214 14.642C32.3214 15.0997 31.9605 15.4708 31.5153 15.4708C31.0701 15.4708 30.7092 15.0997 30.7092 14.642Z" fill="#17120F"/>
<rect x="47" width="35" height="24" rx="4" fill="white"/>
<path fill-rule="evenodd" clip-rule="evenodd" d="M57.6253 16.2582H55.5049L53.915 10.1924C53.8395 9.91334 53.6792 9.66667 53.4435 9.5504C52.8553 9.25823 52.2071 9.0257 51.5 8.90843V8.6749H54.9157C55.3871 8.6749 55.7406 9.0257 55.7996 9.43313L56.6245 13.8086L58.7438 8.6749H60.8052L57.6253 16.2582ZM61.9838 16.2582H59.9813L61.6302 8.6749H63.6327L61.9838 16.2582ZM66.2234 10.7757C66.2823 10.3673 66.6359 10.1337 67.0483 10.1337C67.6965 10.0751 68.4026 10.1924 68.9919 10.4835L69.3454 8.85081C68.7562 8.61727 68.108 8.5 67.5198 8.5C65.5762 8.5 64.162 9.55041 64.162 11.0082C64.162 12.1173 65.1637 12.6996 65.8708 13.0504C66.6359 13.4002 66.9305 13.6338 66.8716 13.9835C66.8716 14.5082 66.2823 14.7418 65.6941 14.7418C64.9869 14.7418 64.2798 14.5669 63.6327 14.2747L63.2791 15.9085C63.9862 16.1996 64.7512 16.3169 65.4584 16.3169C67.6376 16.3745 68.9919 15.3251 68.9919 13.75C68.9919 11.7665 66.2234 11.6502 66.2234 10.7757ZM76 16.2582L74.41 8.6749H72.7022C72.3486 8.6749 71.9951 8.90843 71.8772 9.25823L68.9329 16.2582H70.9943L71.4058 15.1502H73.9386L74.1743 16.2582H76ZM72.9968 10.7171L73.585 13.5751H71.9361L72.9968 10.7171Z" fill="#172B85"/>
<rect x="94" width="35" height="24" rx="4" fill="white"/>
<path fill-rule="evenodd" clip-rule="evenodd" d="M103.9 15.2412H102.344C102.238 15.2412 102.147 15.3186 102.131 15.4236L101.502 19.4127C101.489 19.4914 101.55 19.5624 101.63 19.5624H102.373C102.479 19.5624 102.57 19.485 102.586 19.3797L102.756 18.3038C102.772 18.1985 102.863 18.1212 102.969 18.1212H103.462C104.486 18.1212 105.078 17.6253 105.232 16.6427C105.302 16.2128 105.235 15.875 105.034 15.6384C104.813 15.3787 104.421 15.2412 103.9 15.2412ZM104.079 16.6982C103.994 17.2564 103.568 17.2564 103.156 17.2564H102.921L103.085 16.2138C103.095 16.1509 103.15 16.1045 103.214 16.1045H103.321C103.602 16.1045 103.867 16.1045 104.004 16.2646C104.086 16.3602 104.111 16.5021 104.079 16.6982ZM108.55 16.6803H107.805C107.742 16.6803 107.687 16.7267 107.677 16.7897L107.644 16.9981L107.592 16.9226C107.431 16.6885 107.071 16.6103 106.712 16.6103C105.889 16.6103 105.186 17.2337 105.049 18.1084C104.978 18.5446 105.079 18.9617 105.326 19.2527C105.553 19.5202 105.878 19.6316 106.265 19.6316C106.928 19.6316 107.296 19.2051 107.296 19.2051L107.263 19.4122C107.25 19.4913 107.311 19.5623 107.39 19.5623H108.061C108.168 19.5623 108.258 19.4849 108.275 19.3796L108.678 16.83C108.69 16.7515 108.63 16.6803 108.55 16.6803ZM107.512 18.1302C107.44 18.5557 107.102 18.8414 106.671 18.8414C106.455 18.8414 106.282 18.7721 106.171 18.6406C106.061 18.5101 106.019 18.3242 106.054 18.1172C106.121 17.6952 106.465 17.4003 106.889 17.4003C107.1 17.4003 107.272 17.4705 107.386 17.6031C107.499 17.7371 107.544 17.9241 107.512 18.1302ZM111.769 16.6802H112.518C112.622 16.6802 112.684 16.7977 112.624 16.8837L110.134 20.4776C110.094 20.5359 110.027 20.5705 109.957 20.5705H109.209C109.104 20.5705 109.042 20.452 109.103 20.3657L109.878 19.2714L109.054 16.8516C109.025 16.7675 109.087 16.6802 109.177 16.6802H109.912C110.008 16.6802 110.092 16.7429 110.12 16.8344L110.557 18.2958L111.59 16.775C111.63 16.7156 111.698 16.6802 111.769 16.6802Z" fill="#253B80"/>
<path fill-rule="evenodd" clip-rule="evenodd" d="M119.885 19.4129L120.524 15.3509C120.534 15.2878 120.588 15.2414 120.652 15.2412H121.371C121.45 15.2412 121.511 15.3124 121.498 15.3911L120.869 19.38C120.852 19.4852 120.762 19.5626 120.655 19.5626H120.013C119.934 19.5626 119.873 19.4916 119.885 19.4129ZM114.996 15.2414H113.44C113.334 15.2414 113.243 15.3188 113.227 15.4238L112.598 19.4129C112.585 19.4916 112.646 19.5626 112.726 19.5626H113.524C113.598 19.5626 113.662 19.5085 113.673 19.4348L113.852 18.3041C113.868 18.1987 113.959 18.1214 114.065 18.1214H114.557C115.582 18.1214 116.173 17.6255 116.328 16.6429C116.398 16.213 116.331 15.8752 116.13 15.6386C115.909 15.3789 115.517 15.2414 114.996 15.2414ZM115.176 16.6984C115.091 17.2566 114.664 17.2566 114.252 17.2566H114.017L114.182 16.2141C114.192 16.1511 114.246 16.1047 114.31 16.1047H114.417C114.698 16.1047 114.963 16.1047 115.1 16.2648C115.182 16.3604 115.207 16.5023 115.176 16.6984ZM119.646 16.6805H118.901C118.837 16.6805 118.783 16.7269 118.773 16.79L118.741 16.9983L118.688 16.9228C118.527 16.6887 118.168 16.6105 117.809 16.6105C116.985 16.6105 116.282 17.234 116.146 18.1086C116.075 18.5448 116.175 18.962 116.423 19.2529C116.65 19.5204 116.975 19.6319 117.361 19.6319C118.024 19.6319 118.392 19.2053 118.392 19.2053L118.359 19.4124C118.347 19.4915 118.407 19.5625 118.487 19.5625H119.158C119.264 19.5625 119.355 19.4851 119.371 19.3799L119.774 16.8302C119.787 16.7517 119.726 16.6805 119.646 16.6805ZM118.607 18.1304C118.536 18.556 118.198 18.8416 117.767 18.8416C117.551 18.8416 117.378 18.7723 117.267 18.6408C117.157 18.5103 117.115 18.3244 117.15 18.1174C117.217 17.6954 117.56 17.4005 117.985 17.4005C118.196 17.4005 118.368 17.4707 118.481 17.6033C118.595 17.7373 118.64 17.9243 118.607 18.1304Z" fill="#179BD7"/>
<path d="M109.657 13.8138L109.848 12.5991L109.422 12.5892H107.388L108.802 3.62534C108.806 3.59828 108.82 3.57305 108.841 3.55513C108.862 3.53722 108.889 3.52734 108.917 3.52734H112.347C113.485 3.52734 114.271 3.7643 114.681 4.232C114.874 4.45141 114.996 4.68068 115.056 4.933C115.118 5.19776 115.119 5.51406 115.058 5.89985L115.054 5.92801V6.1752L115.246 6.28418C115.408 6.37011 115.537 6.46848 115.635 6.58111C115.8 6.7687 115.907 7.00712 115.951 7.28978C115.998 7.5805 115.983 7.92643 115.907 8.31807C115.819 8.76859 115.677 9.16096 115.485 9.48202C115.309 9.77785 115.084 10.0232 114.818 10.2134C114.563 10.394 114.261 10.5312 113.919 10.619C113.588 10.7052 113.21 10.7488 112.796 10.7488H112.529C112.338 10.7488 112.152 10.8175 112.007 10.9408C111.861 11.0665 111.764 11.2383 111.735 11.4263L111.715 11.5357L111.377 13.6767L111.361 13.7553C111.357 13.7802 111.35 13.7927 111.34 13.8011C111.331 13.8087 111.318 13.8138 111.305 13.8138H109.657Z" fill="#253B80"/>
<path d="M115.428 5.95703C115.418 6.02248 115.406 6.0894 115.393 6.15815C114.941 8.48056 113.393 9.28286 111.417 9.28286H110.41C110.169 9.28286 109.965 9.45838 109.927 9.6968L109.412 12.9645L109.266 13.8907C109.242 14.0473 109.362 14.1884 109.52 14.1884H111.305C111.517 14.1884 111.696 14.0348 111.729 13.8264L111.747 13.7357L112.083 11.603L112.105 11.4861C112.137 11.2769 112.317 11.1234 112.529 11.1234H112.796C114.525 11.1234 115.879 10.4213 116.274 8.38951C116.44 7.54077 116.354 6.8321 115.917 6.33367C115.784 6.18338 115.62 6.05868 115.428 5.95703Z" fill="#179BD7"/>
<path d="M114.955 5.7688C114.886 5.74869 114.814 5.7304 114.741 5.71395C114.668 5.69787 114.592 5.6836 114.515 5.67117C114.244 5.62729 113.946 5.60645 113.628 5.60645H110.939C110.873 5.60645 110.81 5.62143 110.754 5.6485C110.63 5.7081 110.538 5.82549 110.516 5.96919L109.944 9.59159L109.927 9.69727C109.965 9.45884 110.168 9.28332 110.41 9.28332H111.416C113.393 9.28332 114.941 8.48066 115.393 6.15862C115.406 6.08987 115.418 6.02295 115.428 5.9575C115.314 5.89679 115.19 5.84487 115.056 5.80061C115.023 5.78965 114.989 5.77905 114.955 5.7688Z" fill="#222D65"/>
<path d="M110.516 5.96866C110.538 5.82495 110.63 5.70757 110.754 5.64833C110.811 5.62126 110.873 5.60627 110.939 5.60627H113.628C113.946 5.60627 114.244 5.62712 114.515 5.671C114.593 5.68343 114.668 5.6977 114.741 5.71378C114.815 5.73024 114.886 5.74853 114.955 5.76863C114.989 5.77887 115.023 5.78947 115.057 5.80008C115.19 5.84433 115.314 5.89662 115.428 5.95696C115.563 5.09871 115.427 4.51437 114.963 3.98523C114.452 3.40271 113.528 3.15332 112.347 3.15332H108.917C108.675 3.15332 108.47 3.32884 108.432 3.56763L107.004 12.6236C106.975 12.8028 107.114 12.9645 107.294 12.9645H109.412L109.944 9.59105L110.516 5.96866Z" fill="#253B80"/>
<rect x="141" width="35" height="24" rx="4" fill="white"/>
<path fill-rule="evenodd" clip-rule="evenodd" d="M150.513 4.95605H158.842C164.501 4.95605 166.676 8.049 166.676 11.9585C166.676 16.635 163.636 18.9857 158.842 18.9857H150.513V4.95605ZM151.304 5.79738V18.1939H158.842C163.389 18.1939 165.861 16.066 165.861 11.9833C165.861 7.77687 163.192 5.79738 158.842 5.79738H151.304ZM153.528 12.206C154.361 12.206 155.036 11.5302 155.036 10.6966C155.036 9.863 154.361 9.18724 153.528 9.18724C152.696 9.18724 152.021 9.863 152.021 10.6966C152.021 11.5302 152.696 12.206 153.528 12.206ZM152.317 12.8493H154.739V17.1546H152.317V12.8493Z" fill="black"/>
<path fill-rule="evenodd" clip-rule="evenodd" d="M163.117 9.31128H163.809V11.3897H164.823C164.551 7.60398 161.56 6.7627 158.842 6.7627H155.95V9.31128H156.371C157.161 9.31128 157.631 9.8309 157.631 10.6969C157.631 11.5629 157.161 12.0826 156.395 12.0826H155.95V17.155H158.842C163.266 17.155 164.773 15.1013 164.847 12.0826H163.117V9.31128ZM159.781 11.3897V12.0826H158.051V9.31129H159.732V10.0041H158.743V10.3258H159.682V11.0186H158.768V11.3897H159.781ZM160.078 12.0826L160.918 9.31129H161.906L162.747 12.0826H162.03L161.882 11.563H160.967L160.819 12.0826H160.078ZM161.173 10.8453H161.165V10.8701L161.173 10.8453ZM161.173 10.8453H161.659L161.437 10.0783H161.412L161.173 10.8453ZM155.95 11.3897V10.0041H156.371C156.642 10.0041 156.939 10.0783 156.939 10.6969C156.939 11.3155 156.667 11.3897 156.371 11.3897H155.95Z" fill="#D50072"/>
<rect x="188" width="35" height="24" rx="4" fill="white"/>
<path fill-rule="evenodd" clip-rule="evenodd" d="M205.75 17.1569C204.558 18.1852 203.013 18.806 201.324 18.806C197.555 18.806 194.5 15.7154 194.5 11.903C194.5 8.09057 197.555 5 201.324 5C203.013 5 204.558 5.62075 205.75 6.64903C206.942 5.62075 208.487 5 210.176 5C213.945 5 217 8.09057 217 11.903C217 15.7154 213.945 18.806 210.176 18.806C208.487 18.806 206.942 18.1852 205.75 17.1569Z" fill="#ED0006"/>
<path fill-rule="evenodd" clip-rule="evenodd" d="M205.75 17.1569C207.217 15.8908 208.148 14.0068 208.148 11.903C208.148 9.79917 207.217 7.91517 205.75 6.64903C206.942 5.62075 208.487 5 210.176 5C213.945 5 217 8.09057 217 11.903C217 15.7154 213.945 18.806 210.176 18.806C208.487 18.806 206.942 18.1852 205.75 17.1569Z" fill="#F9A000"/>
<path fill-rule="evenodd" clip-rule="evenodd" d="M205.75 6.64941C207.217 7.91555 208.148 9.79954 208.148 11.9033C208.148 14.0071 207.217 15.8911 205.75 17.1573C204.283 15.8911 203.353 14.0071 203.353 11.9033C203.353 9.79954 204.283 7.91555 205.75 6.64941Z" fill="#FF5E00"/>
<rect x="235" width="35" height="24" rx="4" fill="#1F72CD"/>
<path fill-rule="evenodd" clip-rule="evenodd" d="M241.681 8.5L238.5 15.7467H242.308L242.78 14.5913H243.859L244.332 15.7467H248.523V14.8649L248.897 15.7467H251.065L251.439 14.8462V15.7467H260.157L261.217 14.6213L262.209 15.7467L266.687 15.7561L263.496 12.1436L266.687 8.5H262.279L261.247 9.60463L260.285 8.5H250.802L249.987 10.3704L249.154 8.5H245.353V9.35186L244.931 8.5H241.681ZM254.699 9.52905H259.706L261.237 11.2316L262.817 9.52905H264.348L262.022 12.1426L264.348 14.726H262.748L261.217 13.0036L259.628 14.726H254.699V9.52905ZM255.936 11.555V10.6057V10.6048H259.059L260.422 12.1229L258.999 13.6493H255.936V12.613H258.667V11.555H255.936ZM242.418 9.52905H244.274L246.384 14.4431V9.52905H248.418L250.048 13.0524L251.55 9.52905H253.573V14.7291H252.342L252.332 10.6544L250.537 14.7291H249.435L247.631 10.6544V14.7291H245.098L244.618 13.5633H242.023L241.544 14.728H240.187L242.418 9.52905ZM242.466 12.4856L243.321 10.4089L244.175 12.4856H242.466Z" fill="white"/>
<rect x="282" width="35" height="24" rx="4" fill="white"/>
<path fill-rule="evenodd" clip-rule="evenodd" d="M294.489 13.1168H298.377L300.554 10.9219H304.456L301.143 14.4023H288.889V12.0777H295.461L294.489 13.1168Z" fill="#2D78BB"/>
<path fill-rule="evenodd" clip-rule="evenodd" d="M304.456 10.9222H300.554L298.377 13.1298H294.462L297.775 9.64941H310.042V11.9611H303.47L304.456 10.9222Z" fill="#F8E14B"/>
<path fill-rule="evenodd" clip-rule="evenodd" d="M308.468 8.79271C308.29 8.89653 308.057 8.94858 307.838 8.94858C307.208 8.94858 306.647 8.50706 306.647 7.89669C306.647 7.28618 307.153 6.84466 307.797 6.84466C308.03 6.84466 308.29 6.88359 308.468 6.98755V7.63685C308.331 7.51992 308.126 7.48098 307.893 7.48098C307.674 7.48098 307.414 7.64983 307.414 7.92251C307.414 8.15624 307.674 8.29914 307.893 8.29914C308.139 8.29914 308.29 8.28616 308.468 8.15638V8.79271ZM310.07 8.29914V8.79271C309.508 9.18232 308.865 8.8576 308.865 8.4031V7.4941H308.591V6.89657H308.865V6.41611L309.631 6.02637V6.89657H310.07V7.44205H309.673V8.28616C309.673 8.44203 309.946 8.42905 310.07 8.29914ZM304.525 7.54601L304.648 6.98755C305.415 6.74083 306.51 6.88359 306.51 7.53303V8.90964H305.798L305.771 8.84462C305.442 9.03942 304.237 9.1304 304.402 8.23425C304.497 7.70174 305.141 7.57197 305.538 7.57197C305.743 7.57197 305.826 7.39 305.565 7.37716C305.332 7.36405 304.867 7.39 304.525 7.54601ZM291.6 7.54601L291.71 6.98755C292.477 6.74083 293.572 6.88359 293.572 7.53303V8.90964H292.846L292.833 8.84462C292.518 9.03942 291.272 9.1304 291.463 8.23425C291.559 7.70174 292.189 7.57197 292.586 7.57197C292.792 7.57197 292.874 7.39 292.627 7.37716C292.394 7.36405 291.915 7.39 291.6 7.54601ZM300.376 7.92251C300.376 8.53288 299.842 8.96142 299.199 8.96142C298.555 8.96142 298.008 8.50692 298.008 7.89655C298.008 7.29916 298.555 6.83154 299.185 6.83154C299.842 6.83168 300.376 7.29916 300.376 7.92251ZM304.265 8.29914V8.79271C303.69 9.18232 303.06 8.8576 303.06 8.4031V7.4941H302.786V6.89657H303.06V6.41611L303.84 6.02637V6.89657H304.265V7.44205H303.854V8.28616C303.854 8.44203 304.141 8.42905 304.265 8.29914Z" fill="#2D78BB"/>
<path fill-rule="evenodd" clip-rule="evenodd" d="M290.327 5.88281C291.039 5.88281 291.559 6.77897 290.902 7.33729C291.724 7.81788 291.354 8.88262 290.437 8.89573H288.903V5.88281H290.327ZM297.871 8.79191C297.693 8.89573 297.487 8.94778 297.255 8.94778C296.611 8.94778 296.063 8.50626 296.063 7.89589C296.063 7.28538 296.57 6.84386 297.2 6.84386C297.433 6.84386 297.693 6.88279 297.871 6.98675V7.63606C297.72 7.51912 297.542 7.48019 297.309 7.48019C297.077 7.48019 296.816 7.64903 296.816 7.92171C296.816 8.15545 297.09 8.29834 297.309 8.29834C297.542 8.29834 297.693 8.28536 297.871 8.15558V8.79191ZM295.913 7.59699V8.90871H295.146V7.77881C295.146 7.37623 294.53 7.3892 294.53 7.77881V8.90871H293.763V6.89577H294.544V7.06462C295.187 6.60998 295.913 7.02569 295.913 7.59699ZM302.676 7.59699V8.90871H301.91V7.77881C301.91 7.37623 301.294 7.3892 301.294 7.77881V8.90871H300.527V6.89577H301.294V7.06462C301.951 6.60998 302.676 7.02569 302.676 7.59699ZM305.565 7.37636C305.826 7.38934 305.743 7.57117 305.538 7.57117C305.141 7.57117 304.497 7.70095 304.402 8.23345C304.237 9.12961 305.442 9.03863 305.771 8.84382L305.798 8.90885H306.51V7.5321C306.51 6.88279 305.415 6.7399 304.648 6.98662L304.525 7.54507C304.867 7.3892 305.332 7.36325 305.565 7.37636Z" fill="#2D78BB"/>
<path fill-rule="evenodd" clip-rule="evenodd" d="M292.627 7.37716C292.873 7.39014 292.791 7.57197 292.586 7.57197C292.189 7.57197 291.559 7.70174 291.463 8.23425C291.272 9.1304 292.518 9.03942 292.832 8.84462L292.846 8.90964H293.572V7.5329C293.572 6.88359 292.477 6.7407 291.71 6.98741L291.6 7.54587C291.915 7.39 292.394 7.36405 292.627 7.37716ZM299.185 6.83168C298.555 6.83168 298.008 7.29929 298.008 7.89669C298.008 8.50706 298.555 8.96156 299.199 8.96156C299.842 8.96156 300.376 8.53301 300.376 7.92264C300.376 7.29916 299.842 6.83168 299.185 6.83168ZM303.854 8.28616V7.44205H304.265V6.89657H303.84V6.02637L303.06 6.41611V6.89657H302.786V7.4941H303.06V8.4031C303.06 8.8576 303.69 9.18232 304.265 8.79271V8.29914C304.141 8.42905 303.854 8.44203 303.854 8.28616Z" fill="#2D78BB"/>
<path fill-rule="evenodd" clip-rule="evenodd" d="M288.903 5.88281V8.89573H290.436C291.354 8.88275 291.723 7.81788 290.902 7.33729C291.559 6.77883 291.039 5.88281 290.327 5.88281H288.903ZM297.871 8.15558C297.693 8.28536 297.542 8.29834 297.309 8.29834C297.09 8.29834 296.816 8.15558 296.816 7.92171C296.816 7.6489 297.076 7.48019 297.309 7.48019C297.542 7.48019 297.72 7.51912 297.871 7.63606V6.98675C297.693 6.88279 297.433 6.84386 297.2 6.84386C296.57 6.84386 296.063 7.28538 296.063 7.89589C296.063 8.50626 296.611 8.94778 297.255 8.94778C297.487 8.94778 297.693 8.89587 297.871 8.79191V8.15558ZM294.544 7.06462V6.89577H293.763V8.90871H294.53V7.77881C294.53 7.3892 295.146 7.37623 295.146 7.77881V8.90871H295.913V7.59699C295.913 7.02569 295.187 6.60998 294.544 7.06462ZM301.293 7.06462V6.89577H300.527V8.90871H301.293V7.77881C301.293 7.3892 301.91 7.37623 301.91 7.77881V8.90871H302.676V7.59699C302.676 7.02569 301.951 6.60998 301.293 7.06462ZM308.468 8.15558C308.29 8.28536 308.139 8.29834 307.893 8.29834C307.674 8.29834 307.414 8.15558 307.414 7.92171C307.414 7.6489 307.674 7.48019 307.893 7.48019C308.126 7.48019 308.331 7.51912 308.468 7.63606V6.98675C308.29 6.88279 308.03 6.84386 307.797 6.84386C307.153 6.84386 306.647 7.28538 306.647 7.89589C306.647 8.50626 307.208 8.94778 307.838 8.94778C308.057 8.94778 308.29 8.89587 308.468 8.79191V8.15558ZM309.672 8.28536V7.44125H310.069V6.89577H309.631V6.02557L308.865 6.41532V6.89577H308.591V7.4933H308.865V8.4023C308.865 8.8568 309.508 9.18152 310.07 8.79191V8.29834C309.946 8.42825 309.672 8.44123 309.672 8.28536ZM299.637 7.92171C299.637 8.14247 299.432 8.32429 299.199 8.32429C298.966 8.32429 298.774 8.14247 298.774 7.89575C298.774 7.63606 298.966 7.49316 299.199 7.49316C299.432 7.49316 299.637 7.63606 299.637 7.92171Z" fill="#2D78BB"/>
<path fill-rule="evenodd" clip-rule="evenodd" d="M289.779 7.68829H290.122C290.546 7.68829 290.587 8.29866 290.135 8.29866H289.779V7.68829ZM292.805 8.02599V8.27284C292.805 8.54551 292.23 8.62338 292.23 8.33773C292.23 8.0779 292.641 8.00003 292.805 8.02599ZM305.743 8.02599V8.27284C305.743 8.54551 305.182 8.62338 305.182 8.33773C305.182 8.0779 305.593 8.00003 305.743 8.02599ZM290.122 6.4935C290.519 6.66235 290.382 7.06494 290.135 7.06494H289.78V6.4935C289.779 6.48052 290.026 6.46755 290.122 6.4935Z" fill="#2D78BB"/>
<path fill-rule="evenodd" clip-rule="evenodd" d="M299.199 7.49362C298.966 7.49362 298.775 7.63637 298.775 7.89621C298.775 8.14292 298.966 8.32475 299.199 8.32475C299.432 8.32475 299.637 8.14292 299.637 7.92216C299.637 7.63638 299.432 7.49362 299.199 7.49362ZM305.182 8.33759C305.182 8.62324 305.743 8.54537 305.743 8.2727V8.02585C305.593 8.00003 305.182 8.0779 305.182 8.33759ZM289.779 6.4935V7.06494H290.135C290.382 7.06494 290.519 6.66235 290.122 6.4935C290.026 6.46755 289.779 6.48052 289.779 6.4935ZM292.23 8.33759C292.23 8.62324 292.805 8.54537 292.805 8.2727V8.02585C292.641 8.00003 292.23 8.0779 292.23 8.33759ZM289.779 8.29866H290.135C290.587 8.29866 290.546 7.68829 290.122 7.68829H289.779V8.29866Z" fill="white"/>
<path fill-rule="evenodd" clip-rule="evenodd" d="M298.418 17.1173C298.418 16.4161 298.117 15.9614 297.364 15.9614C296.652 15.9614 296.228 16.4681 296.228 17.0394C296.228 17.6629 296.734 18.1174 297.446 18.1174C298.062 18.1174 298.377 17.8837 298.377 17.8837V17.2863C298.117 17.4162 297.83 17.4941 297.624 17.4941C297.213 17.4941 296.995 17.39 296.995 17.1173H298.418ZM290.382 17.2214L291.011 16.364V18.0652H291.833L291.847 15.1172H291.011L290.382 16.0004L289.738 15.1172H288.903L288.917 18.0652H289.738V16.364L290.382 17.2214ZM299.308 16.8835C299.39 16.7147 299.568 16.5719 299.801 16.5719C299.924 16.5719 300.061 16.6237 300.157 16.6887V16.0524C300.089 15.9745 299.979 15.9483 299.87 15.9483C299.678 15.9483 299.418 16.0524 299.308 16.1823V15.9745H298.569V18.0654H299.308V16.8835ZM293.01 17.9356C293.271 18.0394 293.585 18.0783 293.791 18.0783C294.585 18.0783 294.818 17.6887 294.818 17.364C294.818 16.9872 294.407 16.7797 294.037 16.7277C293.982 16.7277 293.832 16.6887 293.832 16.6236C293.832 16.5718 293.873 16.5068 294.051 16.5068C294.202 16.5068 294.475 16.5588 294.612 16.6236L294.585 16.0782C294.38 16.0133 294.092 15.9614 293.873 15.9614C293.421 15.9614 293.024 16.2213 293.024 16.6367C293.024 16.9614 293.271 17.1303 293.668 17.2083C293.832 17.2214 293.982 17.2861 293.982 17.3641C293.982 17.468 293.873 17.4941 293.763 17.4941C293.668 17.4941 293.421 17.5199 293.01 17.3641V17.9356Z" fill="#2D78BB"/>
<path fill-rule="evenodd" clip-rule="evenodd" d="M295.817 17.4288V16.5718H296.242V16.0134H295.79V15.1171L295.009 15.5069V16.0134H294.736V16.6107H295.009V17.546C295.009 18.0135 295.653 18.3251 296.242 17.9356V17.4289C296.118 17.546 295.817 17.5718 295.817 17.4288ZM292.873 18.0393V16.0134H292.052V18.0393H292.873ZM292.463 15.9482C292.709 15.9482 292.915 15.7534 292.915 15.5196C292.915 15.299 292.709 15.1171 292.463 15.1171C292.23 15.1171 292.038 15.299 292.038 15.5196C292.038 15.7535 292.23 15.9482 292.463 15.9482ZM305.962 17.9354C306.222 18.0393 306.537 18.0782 306.743 18.0782C307.537 18.0782 307.783 17.6886 307.783 17.3639C307.783 16.9871 307.373 16.7796 306.989 16.7275C306.934 16.7275 306.784 16.6886 306.784 16.6235C306.784 16.5717 306.825 16.5066 307.016 16.5066C307.167 16.5066 307.427 16.5587 307.578 16.6235L307.537 16.0781C307.331 16.0132 307.044 15.9613 306.825 15.9613C306.373 15.9613 305.976 16.2211 305.976 16.6366C305.976 16.9613 306.222 17.1301 306.619 17.2081C306.784 17.2213 306.934 17.286 306.934 17.364C306.934 17.4678 306.825 17.4939 306.715 17.4939C306.619 17.4939 306.373 17.5197 305.962 17.364V17.9354ZM303.553 17.2081C303.293 17.3898 303.087 17.4288 302.745 17.4288C302.225 17.4288 301.759 17.0262 301.759 16.6107C301.759 16.1561 302.019 15.7276 302.745 15.7276C303.074 15.7276 303.347 15.7796 303.553 15.9613V15.2601C303.293 15.1171 302.937 15.0781 302.622 15.0781C301.677 15.0781 300.951 15.7145 300.951 16.5848C300.951 17.4417 301.746 18.0912 302.676 18.0912C302.991 18.0912 303.293 18.026 303.553 17.8834V17.2081ZM304.867 16.468C305.127 16.4808 305.045 16.6756 304.84 16.6756C304.429 16.6756 303.772 16.8055 303.69 17.3382C303.511 18.2472 304.744 18.1693 305.072 17.9745L305.1 18.0263H305.839V16.6236C305.839 15.9613 304.716 15.8314 303.922 16.0782L303.813 16.6367C304.155 16.4808 304.634 16.4549 304.867 16.468ZM308.659 16.1692V15.1172H307.893V18.0652H308.659V16.9094C308.659 16.5198 309.289 16.5068 309.289 16.9094V18.0652H310.07V16.7277C310.07 16.1302 309.33 15.7145 308.659 16.1692Z" fill="#2D78BB"/>
<path fill-rule="evenodd" clip-rule="evenodd" d="M296.967 16.7146C297.008 16.5198 297.173 16.4551 297.323 16.4551C297.474 16.4551 297.666 16.52 297.666 16.7146H296.967ZM305.045 17.1303V17.3772C305.045 17.663 304.47 17.7277 304.47 17.4421C304.47 17.1824 304.894 17.1172 305.045 17.1303Z" fill="white"/>
</svg>