<svg width="194" height="144" viewBox="0 0 194 144" fill="none" xmlns="http://www.w3.org/2000/svg">
<circle cx="97" cy="55" r="55" fill="#003049"/>
<path d="M84.312 40.4978C101.745 39.9052 104.148 28.8324 110.685 23.2869" stroke="white" stroke-width="1.3" stroke-miterlimit="10" stroke-linecap="round" stroke-linejoin="round"/>
<path d="M110.492 22.9822C100.977 26.8883 98.9239 38.3504 84.446 40.377" stroke="white" stroke-width="1.3" stroke-miterlimit="10" stroke-linecap="round" stroke-linejoin="round"/>
<path d="M110.296 22.6775C97.8014 24.9485 96.101 36.7966 84.5774 40.2583" stroke="white" stroke-width="1.3" stroke-miterlimit="10" stroke-linecap="round" stroke-linejoin="round"/>
<path d="M110.115 22.366C94.644 22.9943 93.2902 35.235 84.7241 40.1328" stroke="white" stroke-width="1.3" stroke-miterlimit="10" stroke-linecap="round" stroke-linejoin="round"/>
<path d="M109.919 22.057C91.47 21.0481 90.4704 33.6791 84.8552 40.0087" stroke="white" stroke-width="1.3" stroke-miterlimit="10" stroke-linecap="round" stroke-linejoin="round"/>
<path d="M117.002 33.518C116.029 34.2825 115.31 34.8643 114.917 35.2061C111.352 38.3163 107.788 41.4265 109.212 46.2323C110.637 51.0382 110.994 54.143 106.506 54.568C102.017 54.993 93.3731 54.6545 87.7318 47.9183C82.0906 41.182 83.6933 34.2696 91.4347 32.3111C98.2563 30.7867 104.66 27.7942 110.196 23.5439" stroke="white" stroke-width="1.3" stroke-miterlimit="10" stroke-linecap="round" stroke-linejoin="round"/>
<path d="M107.599 57.4018C100.721 58.56 94.8316 57.5284 89.3588 53.6255C85.9337 51.0125 83.3849 47.4275 82.0487 43.3433C82.0487 43.3433 78.7338 47.4797 78.9239 51.9947C78.9239 51.9947 82.7908 47.7295 87.9768 52.5084" stroke="white" stroke-width="1.3" stroke-miterlimit="10" stroke-linecap="round" stroke-linejoin="round"/>
<path d="M85.298 50.2646L79.3472 50.9999L79.6481 45.9313L82.46 44.0063L85.298 50.2646Z" fill="white"/>
<path d="M93.9626 88.5807C109.614 80.9145 104.929 68.8111 108.603 61.0833" stroke="white" stroke-width="1.3" stroke-miterlimit="10" stroke-linecap="round" stroke-linejoin="round"/>
<path d="M108.305 60.8936C101.967 68.815 106.645 80.927 93.9626 88.5911" stroke="white" stroke-width="1.3" stroke-miterlimit="10" stroke-linecap="round" stroke-linejoin="round"/>
<path d="M108 60.7048C98.9965 68.821 103.667 80.9405 93.9626 88.6057" stroke="white" stroke-width="1.3" stroke-miterlimit="10" stroke-linecap="round" stroke-linejoin="round"/>
<path d="M107.7 60.5017C96.0303 68.8125 100.694 80.9407 93.9626 88.6005" stroke="white" stroke-width="1.3" stroke-miterlimit="10" stroke-linecap="round" stroke-linejoin="round"/>
<path d="M107.4 60.2986C93.0652 68.804 97.722 80.9398 93.9626 88.5974" stroke="white" stroke-width="1.3" stroke-miterlimit="10" stroke-linecap="round" stroke-linejoin="round"/>
<path d="M93.5441 88.599C92.3489 80.7662 92.7748 70.2677 99.0408 68.9041C105.307 67.5404 110.868 68.332 109.757 62.4814C108.9 57.9741 104.833 62.3225 96.8895 60.2678C90.9538 58.731 87.9072 55.4835 84.024 54.4183C80.0691 53.3369 76.7183 54.8931 78.4828 62.2771C79.4096 66.1615 80.8242 74.1566 81.4511 88.599" stroke="white" stroke-width="1.3" stroke-miterlimit="10" stroke-linecap="round" stroke-linejoin="round"/>
<path d="M67.816 127.126C67.816 131.342 74.616 130.22 74.616 132.974C74.616 134.096 73.477 134.453 71.947 134.453C70.587 134.453 69.159 134.113 67.867 133.28V135.184C69.04 135.847 70.485 136.221 72.083 136.221C74.463 136.238 76.588 135.371 76.588 132.872C76.588 128.622 69.788 129.659 69.788 127.092C69.788 126.072 70.706 125.647 72.151 125.647C73.426 125.63 74.752 125.987 75.721 126.633V124.78C74.752 124.219 73.358 123.879 71.998 123.879C69.754 123.879 67.816 124.933 67.816 127.126ZM79.8478 129.115V127.84H78.2328V139.74H80.0518V134.946C80.6128 135.592 81.5648 136.221 82.9928 136.221C85.4408 136.221 87.0388 134.266 87.0388 131.92C87.0388 129.574 85.4408 127.619 82.9928 127.619C81.4627 127.619 80.4938 128.333 79.8478 129.115ZM85.1858 131.92C85.1858 133.518 84.1318 134.623 82.6528 134.623C81.3948 134.623 80.4428 133.807 80.0518 132.906V130.917C80.4428 130.033 81.3948 129.217 82.6528 129.217C84.1318 129.217 85.1858 130.322 85.1858 131.92ZM90.6609 136V127.84H88.8419V136H90.6609ZM90.8649 125.188C90.8649 124.474 90.3549 124.117 89.7599 124.117C89.1649 124.117 88.6379 124.474 88.6379 125.188C88.6379 125.936 89.1649 126.276 89.7599 126.276C90.3549 126.276 90.8649 125.936 90.8649 125.188ZM92.4649 131.92C92.4649 134.793 94.5899 136.221 97.0889 136.221C98.2279 136.221 99.2649 136.017 100.013 135.66V134.096C99.3159 134.436 98.4149 134.674 97.4289 134.674C95.9329 134.674 94.5049 134.062 94.3009 132.6H100.438C100.965 130.237 99.8429 127.619 96.5959 127.619C94.7089 127.619 92.4649 128.962 92.4649 131.92ZM98.8059 131.24H94.2839C94.3519 129.863 95.4569 129.132 96.6809 129.132C98.4659 129.132 98.9079 130.526 98.8059 131.24ZM103.903 129.183V127.84H102.288V136H104.107V131.053C104.6 129.897 105.875 129.251 107.337 129.455V127.67C105.858 127.534 104.532 128.18 103.903 129.183ZM107.987 131.92C107.987 134.793 110.112 136.221 112.611 136.221C113.75 136.221 114.787 136.017 115.535 135.66V134.096C114.838 134.436 113.937 134.674 112.951 134.674C111.455 134.674 110.027 134.062 109.823 132.6H115.96C116.487 130.237 115.365 127.619 112.118 127.619C110.231 127.619 107.987 128.962 107.987 131.92ZM114.328 131.24H109.806C109.874 129.863 110.979 129.132 112.203 129.132C113.988 129.132 114.43 130.526 114.328 131.24ZM119.426 128.962V127.84H117.811V136H119.63V130.594C120.089 129.931 120.871 129.234 121.908 129.234C122.996 129.234 123.812 129.863 123.812 131.189V136H125.631V130.951C125.631 129.013 124.322 127.619 122.265 127.619C121.024 127.619 120.021 128.248 119.426 128.962Z" fill="#003049"/>
</svg>
