<svg width="1923" height="700" viewBox="0 0 1923 700" fill="none" xmlns="http://www.w3.org/2000/svg">
<mask id="mask0_8_31697" style="mask-type:alpha" maskUnits="userSpaceOnUse" x="0" y="0" width="1919" height="692">
<path d="M0 16.6297C0 7.44535 10.0634 0 22.4773 0H1896.52C1908.94 0 1919 7.44537 1919 16.6297V651.676C1919 660.86 1908.94 668.306 1896.52 668.306C1896.52 668.306 1468.77 699.879 1194.81 690.132C881.63 678.99 712.699 575.104 401.079 600.748C249.919 613.187 22.4773 668.306 22.4773 668.306C10.0634 668.306 0 660.86 0 651.676V16.6297Z" fill="url(#paint0_linear_8_31697)"/>
</mask>
<g mask="url(#mask0_8_31697)">
<path d="M0 16.6297C0 7.44535 10.0634 0 22.4773 0H1896.52C1908.94 0 1919 7.44537 1919 16.6297V651.676C1919 660.86 1908.94 668.306 1896.52 668.306C1896.52 668.306 1468.77 699.879 1194.81 690.132C881.63 678.99 712.699 575.104 401.079 600.748C249.919 613.187 22.4773 668.306 22.4773 668.306C10.0634 668.306 0 660.86 0 651.676V16.6297Z" fill="url(#paint1_linear_8_31697)"/>
<path d="M2029.44 572.586C2129.41 569.018 2021.6 552.69 2057.87 512.043C2096.5 468.745 2210.54 458.867 2240.12 477.743C2272.34 498.31 2204 515.463 2192.37 568.437C2183.71 607.891 2288.21 613.761 2236.37 655.065C2187.72 693.828 2150.29 613.662 2103.84 631.145C2019.79 662.778 1943.71 575.647 2029.44 572.586ZM1985.54 575.043C2082.6 561.163 1996.8 546.482 2031.9 499.632C2053.09 471.341 2081.5 456.612 2118.03 448.713C2172.63 436.98 2209.47 447.41 2249.64 459.084C2293.81 471.919 2237.21 505.369 2232.8 567.423C2229.26 617.078 2324.39 631.278 2254.64 668.599C2219.53 687.386 2187.67 688.792 2158.5 671.103C2136.64 657.911 2118.32 643.21 2095.29 647.071C2079.78 649.621 2063.94 650.847 2048.06 650.725C2032 650.694 2016.04 648.921 2000.65 645.461C1993.53 643.906 1986.71 641.681 1980.33 638.84C1962.02 630.39 1950.07 615.941 1950.02 603.127C1949.94 590.477 1960.93 578.562 1985.54 575.043ZM1941.64 577.5C2035.03 554.123 1970.73 539.581 2005.92 487.218C2032.2 448.121 2060.85 431.028 2103.8 422.071C2169.55 408.483 2193.89 429.525 2259.16 440.424C2311.48 449.16 2270.94 495.408 2273.21 566.415C2275.13 626.401 2362.43 648.827 2272.9 682.148C2232.27 697.268 2192.23 718.022 2158.84 698.054C2132.65 682.494 2113.73 662.565 2086.74 663.016C2068.95 663.311 2049.27 663.577 2030.44 663.446C2011.36 663.445 1992.3 662.417 1973.41 660.372C1964.83 659.561 1956.43 657.899 1948.43 655.428C1925.99 647.952 1909.93 631.207 1908 615.485C1906.04 599.881 1916.43 583.811 1941.64 577.5ZM1897.74 579.957C1987.17 547.997 1944.13 532.451 1979.95 474.808C2011.03 424.775 2040.23 405.446 2089.57 395.435C2166.45 379.991 2177.93 413.075 2268.69 421.77C2328.83 427.531 2304.99 485.479 2313.64 565.409C2321.25 635.74 2401.59 666.961 2291.17 695.694C2245.59 707.556 2196.8 747.252 2159.18 724.997C2128.64 707.07 2109.18 681.971 2078.19 678.945C2056.5 677.067 2034.68 676.127 2012.84 676.129C1989.16 675.955 1966.53 675.998 1946.19 675.245C1936.16 675.167 1926.19 674.065 1916.55 671.971C1890.02 665.415 1869.81 646.428 1865.98 627.793C1862.13 609.288 1871.76 589.243 1897.74 579.957ZM1853.84 582.414C1939.36 542.685 1917.29 525.222 1953.98 462.397C1989.64 401.349 2019.59 379.853 2075.35 368.796C2163.36 351.494 2162 397.619 2278.21 403.109C2346.29 406.334 2339.22 475.537 2354.06 564.394C2367.53 645.065 2441.28 685.804 2309.44 709.235C2259.13 718.177 2201.37 776.477 2159.52 751.94C2124.64 731.644 2104.63 701.425 2069.64 694.875C2047.3 690.692 2020.74 689.015 1995.23 688.822C1968.3 688.607 1942.44 689.596 1918.95 690.129C1907.22 690.393 1895.87 690.608 1884.65 688.528C1854.08 682.855 1829.67 661.658 1823.96 640.117C1818.21 618.694 1827.06 594.858 1853.84 582.416L1853.84 582.414ZM1809.94 584.871C1891.81 537.989 1890.27 517.95 1928.01 449.985C1968.05 377.858 1998.96 354.28 2061.12 342.156C2160.27 322.997 2146.22 382.835 2287.73 384.451C2363.89 385.322 2373.58 465.576 2394.48 563.384C2413.93 654.377 2481.11 705.303 2327.7 722.779C2272.73 729.04 2205.94 805.707 2159.86 778.883C2120.64 756.22 2100.05 720.913 2061.1 710.81C2036.46 704.419 2006.48 701.739 1977.63 701.513C1948.94 701.579 1920.27 702.746 1891.73 705.01C1878.52 705.915 1865.66 706.879 1852.77 705.084C1818.14 700.266 1789.55 676.896 1781.95 652.441C1774.32 628.107 1782.41 600.64 1809.94 584.873L1809.94 584.871ZM1766.04 587.328C1844.63 533.7 1863.16 510.659 1902.03 437.573C1946.31 354.333 1978.31 328.7 2046.91 315.519C2157.19 294.504 2130.59 368.516 2297.27 365.795C2381.65 364.419 2408.03 455.6 2434.92 562.375C2460.42 663.674 2520.94 725.341 2345.98 736.325C2286.33 740.07 2210.52 834.937 2160.22 805.828C2116.67 780.796 2095.47 740.416 2052.56 726.743C2025.61 718.157 1992.22 714.462 1960.03 714.209C1928.05 714.308 1896.12 716.208 1864.51 719.894C1849.81 721.435 1835.45 723.14 1820.89 721.642C1782.2 717.661 1749.43 692.132 1739.94 664.764C1730.41 637.508 1737.87 606.549 1766.04 587.33L1766.04 587.328ZM1722.14 589.785C1797.81 529.663 1835.99 503.355 1876.06 425.162C1924.45 330.774 1957.69 303.115 2032.67 288.879C2154.09 266.007 2115.09 354.514 2306.78 347.132C2399.5 343.566 2442.52 445.6 2475.33 561.361C2506.95 672.945 2560.63 745.794 2364.24 749.866C2299.85 751.203 2215.08 864.159 2160.55 832.768C2112.65 805.368 2090.85 759.926 2044 742.673C2014.73 731.899 1977.94 727.179 1942.41 726.897C1905.69 726.605 1870.14 730.337 1837.26 734.771C1821.09 736.949 1805.23 739.393 1788.99 738.191C1746.24 735.038 1709.29 707.362 1697.91 677.083C1686.51 646.914 1693.47 612.56 1722.14 589.787L1722.14 589.785ZM1678.24 592.242C1751.32 525.755 1808.76 496.048 1850.09 412.752C1902.46 307.208 1937.05 277.544 2018.44 262.243C2151 237.523 2099.72 340.744 2316.3 328.481C2417.44 322.756 2477.06 435.594 2515.75 560.355C2553.54 682.21 2600.18 766.551 2382.5 763.414C2313.34 762.417 2219.64 893.391 2160.89 859.715C2108.65 829.948 2086.23 779.45 2035.45 758.612C2003.85 745.65 1963.67 739.911 1924.8 739.595C1884.83 739.275 1846.03 743.928 1810.03 749.659C1792.37 752.471 1775.01 755.65 1757.09 754.754C1710.28 752.417 1669.14 722.603 1655.88 689.407C1642.6 656.323 1649.23 618.636 1678.23 592.244L1678.24 592.242ZM1634.34 594.701C1705.14 521.895 1781.49 488.74 1824.12 400.339C1880.4 283.599 1916.42 251.951 2004.21 235.604C2147.91 209.016 2084.44 327.139 2325.83 309.822C2435.45 301.959 2511.62 425.568 2556.17 559.345C2600.17 691.455 2639.57 787.548 2400.77 776.957C2326.74 773.674 2224.21 922.618 2161.23 886.66C2104.65 854.526 2081.59 798.973 2026.89 774.545C1992.97 759.399 1949.39 752.632 1907.18 752.288C1863.96 751.938 1821.92 757.503 1782.8 764.541C1763.65 767.98 1744.79 771.896 1725.2 771.312C1674.32 769.786 1629.02 737.839 1613.86 701.737C1598.7 665.725 1605.12 624.75 1634.34 594.705L1634.34 594.701ZM1590.44 597.158C1659.19 518.034 1754.21 481.431 1798.15 387.927C1858.27 259.984 1895.79 226.367 1989.98 208.964C2144.82 180.521 2069.24 313.648 2335.34 291.164C2453.51 281.177 2546.21 415.532 2596.59 558.334C2646.81 700.692 2678.82 808.719 2419.03 790.501C2340.1 784.968 2228.78 951.848 2161.57 913.605C2100.66 879.1 2076.94 818.497 2018.34 790.48C1982.09 773.15 1935.13 765.358 1889.58 764.986C1843.1 764.605 1797.81 771.082 1755.57 779.429C1734.94 783.513 1714.57 788.152 1693.31 787.872C1638.36 787.152 1588.89 753.077 1571.85 714.064C1554.79 675.134 1561.12 630.887 1590.43 597.154L1590.44 597.158ZM1546.54 599.615C1613.45 514.143 1726.9 474.125 1772.17 375.515C1836.06 236.363 1875.15 200.785 1975.76 182.324C2141.74 152.015 2054.12 300.274 2344.87 272.508C2471.62 260.401 2580.83 405.482 2637.02 557.326C2693.5 709.916 2717.95 830.023 2437.3 804.048C2353.42 796.283 2233.35 981.078 2161.92 940.546C2096.65 903.674 2072.31 838.011 2009.8 806.412C1971.21 786.899 1920.87 778.079 1871.98 777.677C1822.24 777.268 1773.71 784.652 1728.35 794.31C1706.23 799.02 1684.36 804.396 1661.43 804.426C1602.4 804.51 1548.76 768.313 1529.83 726.397C1520.51 705.585 1517.17 683.509 1520.05 661.646C1522.93 639.782 1531.96 618.636 1546.53 599.619L1546.54 599.615ZM1502.64 602.072C1567.87 510.205 1699.58 466.818 1746.2 363.106C1813.8 212.732 1854.52 175.203 1961.53 155.689C2138.65 123.532 2039.05 286.968 2354.39 253.852C2489.77 239.636 2615.43 395.429 2677.44 556.316C2740.19 719.131 2756.96 851.429 2455.57 817.592C2366.69 807.614 2237.92 1010.3 2162.26 967.495C2092.66 928.255 2067.65 857.551 2001.25 822.349C1960.32 800.651 1906.61 790.806 1854.37 790.374C1801.38 789.944 1749.6 798.229 1701.12 809.196C1677.51 814.538 1654.14 820.645 1629.54 820.986C1566.43 821.868 1508.64 783.547 1487.8 738.714C1466.98 693.949 1473.45 643.174 1502.63 602.076L1502.64 602.072ZM1458.74 604.529C1522.41 506.211 1672.24 459.514 1720.23 350.692C1791.5 189.089 1833.88 149.619 1947.31 129.05C2135.56 95.0348 2024.02 273.716 2363.91 235.193C2507.93 218.869 2650.06 385.367 2717.86 555.306C2786.89 728.346 2795.87 872.909 2473.83 831.135C2379.92 818.953 2242.49 1039.53 2162.59 994.438C2088.65 952.83 2062.99 877.071 1992.7 838.282C1949.43 814.4 1892.33 803.528 1836.75 803.066C1780.51 802.601 1725.48 811.799 1673.88 824.08C1648.79 830.051 1623.91 836.887 1597.65 837.542C1530.46 839.219 1468.5 798.783 1445.79 751.035C1423.07 703.355 1429.73 649.309 1458.73 604.533L1458.74 604.529ZM1414.84 606.986C1477.07 502.164 1644.89 452.216 1694.26 338.289C1769.15 165.45 1813.25 124.043 1933.08 102.418C2132.47 66.5485 2009.04 260.52 2373.44 216.544C2526.14 198.115 2684.7 375.305 2758.28 554.302C2833.61 737.546 2834.7 894.457 2492.1 844.685C2393.14 830.307 2247.06 1068.77 2162.94 1021.38C2084.67 977.407 2058.34 896.598 1984.16 854.217C1938.53 828.149 1878.07 816.251 1819.15 815.759C1759.65 815.262 1701.38 825.367 1646.67 838.963C1620.09 845.567 1593.7 853.131 1565.78 854.101C1494.5 856.573 1428.39 814.017 1403.79 763.361C1379.17 712.76 1386.07 655.435 1414.83 606.99L1414.84 606.986ZM1370.94 609.443C1431.8 498.06 1617.53 444.91 1668.28 325.871C1746.76 141.792 1792.61 98.4461 1918.85 75.7724C2129.39 38.0452 1994.09 247.347 2382.96 197.868C2544.35 177.337 2719.35 365.212 2798.71 553.274C2880.35 746.723 2873.44 916.025 2510.37 858.213C2406.32 841.644 2251.65 1097.98 2163.28 1048.32C2080.66 1001.97 2053.68 916.118 1975.61 870.141C1927.64 841.889 1863.81 828.966 1801.55 828.439C1738.79 827.914 1677.22 838.843 1619.43 853.832C1591.34 861.024 1563.47 869.36 1533.88 870.644C1458.51 873.911 1388.25 829.239 1361.76 775.671C1335.26 722.168 1342.46 661.548 1370.93 609.449L1370.94 609.443ZM1327.04 611.9C1386.6 493.905 1590.17 437.612 1642.31 313.457C1724.35 118.134 1771.98 72.8703 1904.63 49.1326C2126.3 9.54821 1979.16 234.211 2392.47 179.218C2562.58 156.586 2753.98 355.142 2839.12 552.273C2927.07 755.923 2912.11 937.657 2528.62 871.766C2419.47 853.011 2256.19 1127.21 2163.61 1075.27C2076.65 1026.56 2048.99 935.649 1967.04 886.084C1916.72 855.648 1849.53 841.698 1783.92 841.145C1717.89 840.593 1653.1 852.441 1592.18 868.729C1562.61 876.559 1533.23 885.618 1501.97 887.215C1422.52 891.275 1348.1 844.488 1319.73 788.01C1291.35 731.575 1298.89 667.649 1327.03 611.906L1327.04 611.9ZM1283.14 614.356C1341.45 489.698 1562.8 430.316 1616.34 301.045C1701.9 94.4714 1751.34 47.2883 1890.4 22.4951C2123.21 -18.9465 1964.27 221.103 2402.01 160.562C2580.84 135.829 2788.65 345.06 2879.55 551.262C2973.83 765.11 2950.75 959.307 2546.9 885.306C2432.62 864.367 2260.77 1156.44 2163.97 1102.2C2072.66 1051.12 2044.2 955.288 1958.51 902.002C1905.75 869.462 1835.26 854.404 1766.33 853.826C1697.05 853.243 1629 866.011 1564.97 883.597C1533.9 892.064 1503.02 901.845 1470.1 903.758C1386.55 908.61 1307.98 859.711 1277.72 800.32C1247.46 740.93 1255.35 673.736 1283.12 614.363L1283.14 614.356ZM1239.24 616.814C1296.35 485.449 1535.42 423.021 1590.37 288.634C1679.43 70.8091 1730.71 21.704 1876.18 -4.13817C2120.12 -47.437 1949.39 208.025 2411.53 141.91C2599.1 115.077 2823.3 334.979 2919.98 550.258C3020.58 774.298 2989.33 980.988 2565.17 898.861C2445.75 875.738 2265.34 1185.68 2164.31 1129.16C2068.68 1075.72 2039.57 974.801 1949.96 917.958C1894.87 883.21 1821.01 867.151 1748.73 866.54C1676.2 865.927 1604.9 879.616 1537.75 898.502C1505.2 907.61 1472.8 918.063 1438.22 920.335C1350.57 925.849 1267.87 874.967 1235.72 812.663C1203.57 750.36 1211.84 679.811 1239.22 616.82L1239.24 616.814ZM1195.33 619.27C1251.28 481.16 1508.04 415.727 1564.39 276.222C1656.94 47.1443 1710.07 -3.87801 1861.95 -30.7821C2117.03 -75.936 1934.53 194.949 2421.05 123.246C2617.38 94.3124 2858.41 324.766 2960.4 549.242C3067.8 783.349 3027.87 1002.67 2583.43 912.397C2458.86 887.094 2269.91 1214.9 2164.65 1156.1C2064.67 1100.28 2034.93 994.289 1941.41 933.884C1883.99 896.935 1806.74 879.867 1731.11 879.227C1655.33 878.582 1580.79 893.199 1510.51 913.379C1476.47 923.123 1442.56 934.31 1406.34 936.887C1314.6 943.233 1227.73 890.196 1193.7 824.982C1159.67 759.769 1168.35 685.877 1195.32 619.277L1195.33 619.27ZM1151.43 621.73C1206.24 476.833 1480.32 408.363 1538.42 263.81C1633.89 23.3528 1689.44 -29.46 1847.72 -57.4216C2113.94 -104.433 1919.69 181.895 2430.58 104.587C2635.66 73.5541 2892.85 314.728 3000.82 548.231C3114.33 792.582 3066.36 1024.37 2601.7 925.941C2471.95 898.457 2274.47 1244.13 2164.99 1183.05C2060.66 1124.86 2030.29 1013.78 1932.86 949.817C1873.1 910.66 1792.47 892.589 1713.5 891.92C1634.45 891.249 1556.67 906.778 1483.27 928.261C1447.75 938.643 1412.33 950.567 1374.43 953.443C1278.6 960.62 1187.59 905.43 1151.66 837.306C1115.74 769.182 1124.86 691.928 1151.42 621.736L1151.43 621.73ZM2619.95 939.495C2485.02 909.831 2279.03 1273.36 2165.32 1210C2056.65 1149.45 2025.65 1033.28 1924.3 965.758C1862.21 924.4 1778.19 905.321 1695.88 904.62C1613.57 903.919 1532.55 920.37 1456.03 943.151C1419.03 954.17 1382.1 966.831 1342.53 970.008C1242.63 978.019 1147.45 920.673 1109.64 849.632C1071.83 778.59 1081.41 697.964 1107.52 624.186C1161.21 472.474 1453.25 401.145 1512.44 251.401C1611.88 -0.189278 1668.78 -55.027 1833.48 -84.0462C2110.84 -132.915 1904.84 168.87 2440.09 85.944C2878.44 18.024 3566.7 1147.66 2619.95 939.495Z" stroke="#003049" stroke-opacity="0.6" stroke-width="0.8" stroke-miterlimit="10"/>
</g>
<defs>
<linearGradient id="paint0_linear_8_31697" x1="3.27123e-06" y1="334.153" x2="1919" y2="334.153" gradientUnits="userSpaceOnUse">
<stop stop-color="#A5DACB"/>
<stop offset="0.520833" stop-color="#CCE4BC"/>
<stop offset="1" stop-color="#A5DACB"/>
</linearGradient>
<linearGradient id="paint1_linear_8_31697" x1="3.27123e-06" y1="334.153" x2="1919" y2="334.153" gradientUnits="userSpaceOnUse">
<stop stop-color="#A5DACB"/>
<stop offset="0.520833" stop-color="#CCE4BC"/>
<stop offset="1" stop-color="#A5DACB"/>
</linearGradient>
</defs>
</svg>
