<svg xmlns="http://www.w3.org/2000/svg" width="12" height="12" viewBox="0 0 12 12" fill="none">
<path d="M6.00923 11.8759C7.56512 11.8759 9.05746 11.2578 10.1576 10.1576C11.2578 9.0573 11.8759 7.56512 11.8759 6.00923C11.8759 4.45334 11.2578 2.961 10.1576 1.86089C9.0573 0.760704 7.56512 0.142578 6.00923 0.142578C4.45334 0.142578 2.961 0.760704 1.86089 1.86089C0.760704 2.96116 0.142578 4.45334 0.142578 6.00923C0.142578 7.56512 0.760704 9.05746 1.86089 10.1576C2.96116 11.2578 4.45334 11.8759 6.00923 11.8759ZM2.96397 6.16388C3.06388 6.06459 3.19906 6.00879 3.33995 6.00879C3.48093 6.00879 3.61602 6.06459 3.71602 6.16388L4.94262 7.39058L8.03062 4.30258C8.16794 4.18499 8.35545 4.14499 8.52875 4.19624C8.70214 4.24749 8.83769 4.38312 8.88893 4.55642C8.94027 4.72982 8.90018 4.91731 8.78259 5.05464L5.31585 8.52138L5.31594 8.52129C5.21594 8.62067 5.08086 8.67638 4.93987 8.67638C4.79898 8.67638 4.6638 8.62067 4.5639 8.52129L2.96389 6.92129C2.86291 6.8212 2.80613 6.68486 2.80613 6.54264C2.80613 6.4005 2.86291 6.26415 2.96389 6.16399L2.96397 6.16388Z" fill="#003049"/>
</svg>