<svg xmlns="http://www.w3.org/2000/svg" width="37" height="26" viewBox="0 0 37 26" fill="none">
<rect x="1" y="1" width="35" height="24" rx="4" fill="white"/>
<path fill-rule="evenodd" clip-rule="evenodd" d="M11.6253 17.2582H9.50494L7.91495 11.1924C7.83949 10.9133 7.67925 10.6667 7.44354 10.5504C6.85531 10.2582 6.20712 10.0257 5.5 9.90843V9.6749H8.91567C9.38708 9.6749 9.74064 10.0257 9.79957 10.4331L10.6245 14.8086L12.7438 9.6749H14.8052L11.6253 17.2582ZM15.9838 17.2582H13.9813L15.6302 9.6749H17.6327L15.9838 17.2582ZM20.2234 11.7757C20.2823 11.3673 20.6359 11.1337 21.0483 11.1337C21.6965 11.0751 22.4026 11.1924 22.9919 11.4835L23.3454 9.85081C22.7562 9.61727 22.108 9.5 21.5198 9.5C19.5762 9.5 18.162 10.5504 18.162 12.0082C18.162 13.1173 19.1637 13.6996 19.8708 14.0504C20.6359 14.4002 20.9305 14.6338 20.8716 14.9835C20.8716 15.5082 20.2823 15.7418 19.6941 15.7418C18.9869 15.7418 18.2798 15.5669 17.6327 15.2747L17.2791 16.9085C17.9862 17.1996 18.7512 17.3169 19.4584 17.3169C21.6376 17.3745 22.9919 16.3251 22.9919 14.75C22.9919 12.7665 20.2234 12.6502 20.2234 11.7757ZM30 17.2582L28.41 9.6749H26.7022C26.3486 9.6749 25.9951 9.90843 25.8772 10.2582L22.9329 17.2582H24.9943L25.4058 16.1502H27.9386L28.1743 17.2582H30ZM26.9968 11.7171L27.585 14.5751H25.9361L26.9968 11.7171Z" fill="#172B85"/>
<rect x="1" y="1" width="35" height="24" rx="4" stroke="#E5E5E5"/>
</svg>